<?xml version="1.0" encoding="UTF-8" standalone="no"?>
<!-- Created with Inkscape (http://www.inkscape.org/) -->

<svg
   xmlns:dc="http://purl.org/dc/elements/1.1/"
   xmlns:cc="http://creativecommons.org/ns#"
   xmlns:rdf="http://www.w3.org/1999/02/22-rdf-syntax-ns#"
   xmlns:svg="http://www.w3.org/2000/svg"
   xmlns="http://www.w3.org/2000/svg"
   version="1.1"
   width="892.91339"
   height="143.1496"
   id="svg28133">
  <defs
     id="defs28135" />
  <metadata
     id="metadata28138">
    <rdf:RDF>
      <cc:Work
         rdf:about="">
        <dc:format>image/svg+xml</dc:format>
        <dc:type
           rdf:resource="http://purl.org/dc/dcmitype/StillImage" />
        <dc:title></dc:title>
      </cc:Work>
    </rdf:RDF>
  </metadata>
  <g
     transform="translate(-83.84956,-209.04414)"
     id="layer1">
    <g
       transform="matrix(11.851635,0,0,-11.851635,-1050.3641,860.77425)"
       id="g28086">
      <path
         d="m 106.526,48.952 c 0,-3.172 -2.356,-5.742 -5.263,-5.742 -2.906,0 -5.263,2.57 -5.263,5.742 0,3.17 2.357,5.741 5.263,5.741 2.907,0 5.263,-2.571 5.263,-5.741"
         id="path27450"
         style="fill:#a36109;fill-opacity:1;fill-rule:nonzero;stroke:none" />
      <path
         d="m 106.526,48.952 c 0,-3.172 -2.356,-5.742 -5.263,-5.742 -2.906,0 -5.263,2.57 -5.263,5.742 0,3.17 2.357,5.741 5.263,5.741 2.907,0 5.263,-2.571 5.263,-5.741"
         id="path27452"
         style="fill:#a36109;fill-opacity:1;fill-rule:nonzero;stroke:none" />
      <path
         d="m 103.028,52.271 c 0,-0.325 0.048,-1.38 0.063,-1.522 0.027,-0.252 0.083,-0.458 0.263,-0.642 0.111,-0.112 0.233,-0.239 0.307,-0.339 0.058,-0.082 0.17,-0.234 0.17,-0.543 0,-0.116 -0.037,-3.321 -0.038,-3.35 l 0.299,-10e-4 c 0.001,0.121 0.038,3.232 0.038,3.351 0,0.433 -0.172,0.666 -0.245,0.766 -0.087,0.12 -0.215,0.254 -0.341,0.382 -0.094,0.095 -0.133,0.2 -0.157,0.417 -0.012,0.117 -0.061,1.153 -0.061,1.481 l -0.298,0 z"
         id="path27454"
         style="fill:#ffffff;fill-opacity:1;fill-rule:nonzero;stroke:none" />
      <path
         d="m 99.192,52.272 c 0,-0.326 -0.05,-1.365 -0.062,-1.482 -0.024,-0.217 -0.062,-0.322 -0.157,-0.417 -0.125,-0.127 -0.253,-0.262 -0.341,-0.382 -0.073,-0.1 -0.244,-0.333 -0.244,-0.766 0,-0.119 0.036,-3.23 0.037,-3.35 l 0.299,-10e-4 c 0,0.03 -0.037,3.235 -0.037,3.351 0,0.309 0.112,0.461 0.17,0.543 0.073,0.1 0.196,0.227 0.306,0.339 0.181,0.184 0.236,0.39 0.264,0.642 0.014,0.142 0.064,1.199 0.064,1.523 l -0.299,0 z"
         id="path27456"
         style="fill:#ffffff;fill-opacity:1;fill-rule:nonzero;stroke:none" />
      <path
         d="m 102.168,46.136 c -0.103,0.015 -0.437,0.068 -0.532,0.08 -0.096,0.011 -0.191,0.103 -0.191,0.196 0,0.092 -0.02,2.392 -0.023,2.824 -0.002,0.433 0.313,0.687 0.481,0.866 0.169,0.177 0.237,0.389 0.263,0.642 0.016,0.138 0.061,0.983 0.061,1.318 l 0.003,0.204 -1.929,0 0.004,-0.204 c 0,-0.335 0.046,-1.18 0.061,-1.318 0.026,-0.259 0.089,-0.466 0.263,-0.642 0.3,-0.305 0.476,-0.493 0.476,-0.872 0,-0.363 -0.018,-2.72 -0.018,-2.815 0,-0.094 -0.096,-0.188 -0.189,-0.199 -0.093,-0.011 -0.453,-0.068 -0.544,-0.081 -0.093,-0.012 -0.177,-0.041 -0.173,-0.138 0.003,-0.098 0.079,-0.122 0.173,-0.122 l 1.814,0 c 0.097,0 0.166,0.023 0.174,0.121 0.008,0.097 -0.078,0.126 -0.174,0.14"
         id="path27458"
         style="fill:#ffffff;fill-opacity:1;fill-rule:nonzero;stroke:none" />
      <path
         d="m 111.508,48.533 c -0.135,0.095 -0.281,0.14 -0.53,0.153 -0.114,0.006 -0.178,0.006 -0.274,0.006 -0.026,0 -0.038,-0.012 -0.038,-0.044 l 0,-1.513 c 0,-0.421 0.019,-0.529 0.223,-0.612 0.172,-0.071 0.319,-0.077 0.466,-0.077 0.287,0 0.772,0.153 0.772,0.817 0,0.396 -0.134,0.932 -0.619,1.27 m -0.842,0.51 c 0,-0.051 0.019,-0.063 0.044,-0.07 0.058,-0.013 0.154,-0.019 0.3,-0.019 0.211,0 0.351,0.026 0.46,0.121 0.166,0.134 0.261,0.364 0.261,0.677 0,0.427 -0.249,0.989 -0.798,0.989 -0.088,0 -0.146,0 -0.21,-0.013 -0.045,-0.013 -0.057,-0.038 -0.057,-0.108 l 0,-1.577 z m -0.766,0.109 c 0,0.97 0,1.149 -0.013,1.352 -0.013,0.218 -0.064,0.32 -0.274,0.364 -0.051,0.013 -0.16,0.02 -0.249,0.02 -0.07,0 -0.109,0.012 -0.109,0.057 0,0.045 0.045,0.058 0.14,0.058 0.339,0 0.741,-0.02 0.869,-0.02 0.312,0 0.561,0.02 0.778,0.02 1.155,0 1.359,-0.619 1.359,-0.958 0,-0.523 -0.3,-0.836 -0.651,-1.117 0.524,-0.179 1.162,-0.631 1.162,-1.378 0,-0.682 -0.53,-1.391 -1.704,-1.391 -0.153,0 -0.734,0.038 -0.925,0.038 -0.147,0 -0.549,-0.019 -0.804,-0.019 -0.084,0 -0.128,0.019 -0.128,0.064 0,0.032 0.025,0.051 0.102,0.051 0.096,0 0.173,0.013 0.23,0.025 0.127,0.026 0.159,0.166 0.185,0.352 0.032,0.268 0.032,0.771 0.032,1.359 l 0,1.123 z"
         id="path27460"
         style="fill:#887e6e;fill-opacity:1;fill-rule:nonzero;stroke:none" />
      <path
         d="m 114.941,48.648 c 0,-0.07 0.013,-0.096 0.057,-0.115 0.134,-0.045 0.326,-0.064 0.485,-0.064 0.256,0 0.339,0.026 0.453,0.109 0.192,0.14 0.377,0.433 0.377,0.957 0,0.906 -0.6,1.168 -0.976,1.168 -0.16,0 -0.275,-0.007 -0.339,-0.026 -0.044,-0.013 -0.057,-0.038 -0.057,-0.089 l 0,-1.94 z m -0.753,0.504 c 0,0.97 0,1.149 -0.013,1.352 -0.013,0.218 -0.064,0.32 -0.274,0.364 -0.051,0.013 -0.16,0.02 -0.249,0.02 -0.07,0 -0.108,0.012 -0.108,0.057 0,0.045 0.044,0.058 0.14,0.058 0.338,0 0.74,-0.02 0.874,-0.02 0.217,0 0.702,0.02 0.9,0.02 0.402,0 0.83,-0.039 1.174,-0.275 0.179,-0.121 0.434,-0.446 0.434,-0.874 0,-0.472 -0.198,-0.907 -0.842,-1.429 0.568,-0.716 1.008,-1.283 1.385,-1.679 0.357,-0.37 0.619,-0.415 0.714,-0.434 0.071,-0.013 0.128,-0.019 0.179,-0.019 0.051,0 0.076,-0.019 0.076,-0.051 0,-0.051 -0.044,-0.064 -0.121,-0.064 l -0.606,0 c -0.357,0 -0.517,0.032 -0.683,0.121 -0.274,0.147 -0.517,0.447 -0.874,0.938 -0.255,0.352 -0.549,0.786 -0.632,0.881 -0.032,0.038 -0.07,0.045 -0.115,0.045 l -0.555,0.013 c -0.032,0 -0.051,-0.013 -0.051,-0.052 l 0,-0.089 c 0,-0.594 0,-1.097 0.032,-1.365 0.019,-0.186 0.057,-0.326 0.249,-0.352 0.095,-0.012 0.236,-0.025 0.313,-0.025 0.051,0 0.076,-0.019 0.076,-0.051 0,-0.045 -0.045,-0.064 -0.128,-0.064 -0.369,0 -0.842,0.019 -0.938,0.019 -0.121,0 -0.523,-0.019 -0.778,-0.019 -0.083,0 -0.127,0.019 -0.127,0.064 0,0.032 0.025,0.051 0.101,0.051 0.096,0 0.173,0.013 0.23,0.025 0.128,0.026 0.159,0.166 0.185,0.352 0.032,0.268 0.032,0.771 0.032,1.359 l 0,1.123 z"
         id="path27462"
         style="fill:#887e6e;fill-opacity:1;fill-rule:nonzero;stroke:none" />
      <path
         d="m 122.63,48.469 c 0,1.43 -0.823,2.316 -1.869,2.316 -0.734,0 -1.57,-0.408 -1.57,-1.997 0,-1.327 0.734,-2.38 1.959,-2.38 0.447,0 1.48,0.217 1.48,2.061 m -4.32,0.121 c 0,1.092 0.722,2.502 2.636,2.502 1.589,0 2.578,-0.926 2.578,-2.387 0,-1.461 -1.021,-2.616 -2.642,-2.616 -1.831,0 -2.572,1.372 -2.572,2.501"
         id="path27464"
         style="fill:#887e6e;fill-opacity:1;fill-rule:nonzero;stroke:none" />
      <path
         d="m 124.258,50.377 c -0.076,0.236 -0.147,0.389 -0.236,0.453 -0.071,0.045 -0.198,0.058 -0.256,0.058 -0.064,0 -0.102,0.006 -0.102,0.057 0,0.045 0.051,0.058 0.141,0.058 0.332,0 0.682,-0.02 0.74,-0.02 0.057,0 0.338,0.02 0.709,0.02 0.088,0 0.133,-0.02 0.133,-0.058 0,-0.051 -0.051,-0.057 -0.115,-0.057 -0.051,0 -0.115,0 -0.159,-0.026 -0.057,-0.026 -0.071,-0.07 -0.071,-0.14 0,-0.083 0.064,-0.3 0.141,-0.588 0.109,-0.421 0.702,-2.354 0.817,-2.711 l 0.019,0 1.238,3.324 c 0.071,0.179 0.109,0.23 0.159,0.23 0.071,0 0.103,-0.096 0.186,-0.3 l 1.327,-3.21 0.019,0 c 0.115,0.428 0.625,2.112 0.849,2.859 0.045,0.147 0.063,0.281 0.063,0.37 0,0.102 -0.057,0.192 -0.306,0.192 -0.063,0 -0.108,0.018 -0.108,0.057 0,0.045 0.051,0.058 0.146,0.058 0.338,0 0.607,-0.02 0.664,-0.02 0.045,0 0.319,0.02 0.53,0.02 0.07,0 0.115,-0.013 0.115,-0.052 0,-0.045 -0.032,-0.063 -0.09,-0.063 -0.063,0 -0.153,-0.007 -0.223,-0.032 -0.153,-0.058 -0.223,-0.313 -0.357,-0.677 -0.294,-0.803 -0.964,-2.833 -1.277,-3.79 -0.069,-0.224 -0.102,-0.3 -0.184,-0.3 -0.064,0 -0.103,0.076 -0.198,0.313 l -1.328,3.196 -0.013,0 c -0.121,-0.325 -0.97,-2.584 -1.244,-3.171 -0.121,-0.262 -0.153,-0.338 -0.23,-0.338 -0.063,0 -0.096,0.07 -0.146,0.236 l -1.353,4.052 z"
         id="path27466"
         style="fill:#887e6e;fill-opacity:1;fill-rule:nonzero;stroke:none" />
      <path
         d="m 131.947,47.046 c 0.013,-0.498 0.096,-0.664 0.224,-0.708 0.109,-0.039 0.23,-0.045 0.332,-0.045 0.07,0 0.108,-0.013 0.108,-0.051 0,-0.051 -0.057,-0.064 -0.147,-0.064 -0.415,0 -0.67,0.019 -0.791,0.019 -0.058,0 -0.357,-0.019 -0.689,-0.019 -0.083,0 -0.14,0.006 -0.14,0.064 0,0.038 0.038,0.051 0.101,0.051 0.083,0 0.198,0.006 0.287,0.032 0.167,0.051 0.192,0.236 0.198,0.791 l 0.057,3.778 c 0,0.128 0.02,0.217 0.084,0.217 0.07,0 0.128,-0.083 0.236,-0.198 0.077,-0.083 1.046,-1.123 1.978,-2.048 0.434,-0.434 1.295,-1.353 1.404,-1.455 l 0.032,0 -0.064,2.865 c -0.006,0.389 -0.063,0.51 -0.217,0.574 -0.096,0.039 -0.249,0.039 -0.338,0.039 -0.077,0 -0.102,0.018 -0.102,0.057 0,0.051 0.07,0.058 0.166,0.058 0.332,0 0.638,-0.02 0.772,-0.02 0.07,0 0.313,0.02 0.625,0.02 0.083,0 0.147,-0.007 0.147,-0.058 0,-0.039 -0.038,-0.057 -0.115,-0.057 -0.063,0 -0.115,0 -0.191,-0.02 -0.179,-0.05 -0.23,-0.184 -0.236,-0.542 l -0.07,-4.027 c 0,-0.14 -0.026,-0.197 -0.083,-0.197 -0.071,0 -0.147,0.07 -0.217,0.14 -0.403,0.383 -1.219,1.219 -1.883,1.876 -0.695,0.689 -1.404,1.487 -1.519,1.608 l -0.018,0 0.069,-2.68 z"
         id="path27468"
         style="fill:#887e6e;fill-opacity:1;fill-rule:nonzero;stroke:none" />
      <path
         d="m 137.015,48.407 c 0.232,0.464 0.316,0.505 0.484,0.505 0.204,0 0.421,-0.02 0.857,-0.02 0.456,0 0.491,0 0.568,0.154 l 0.091,-0.063 c -0.231,-0.478 -0.266,-0.512 -0.392,-0.512 -0.408,0 -0.892,0.013 -1.279,0.013 -0.111,0 -0.174,-0.007 -0.238,-0.14 l -0.091,0.063 z"
         id="path27470"
         style="fill:#887e6e;fill-opacity:1;fill-rule:nonzero;stroke:none" />
      <path
         d="m 141.295,48.029 c 0,-0.613 0,-1.091 0.031,-1.359 0.019,-0.186 0.058,-0.326 0.249,-0.352 0.089,-0.012 0.23,-0.025 0.319,-0.025 0.083,0 0.109,-0.019 0.109,-0.051 0,-0.045 -0.046,-0.064 -0.141,-0.064 -0.402,0 -0.804,0.019 -0.969,0.019 -0.166,0 -0.569,-0.019 -0.811,-0.019 -0.089,0 -0.134,0.013 -0.134,0.064 0,0.032 0.025,0.051 0.095,0.051 0.096,0 0.173,0.013 0.231,0.025 0.127,0.026 0.159,0.166 0.184,0.352 0.033,0.268 0.033,0.746 0.033,1.359 l 0,1.123 c 0,0.97 0,1.149 -0.014,1.352 -0.012,0.218 -0.063,0.32 -0.274,0.364 -0.051,0.013 -0.16,0.02 -0.249,0.02 -0.064,0 -0.108,0.012 -0.108,0.051 0,0.051 0.051,0.064 0.147,0.064 0.331,0 0.734,-0.02 0.919,-0.02 0.242,0 1.537,0 1.684,0.007 0.121,0.006 0.198,0.006 0.262,0.025 0.038,0.013 0.07,0.039 0.102,0.039 0.026,0 0.044,-0.026 0.044,-0.058 0,-0.045 -0.032,-0.121 -0.051,-0.287 -0.006,-0.064 -0.019,-0.44 -0.031,-0.517 -0.007,-0.051 -0.02,-0.089 -0.064,-0.089 -0.045,0 -0.057,0.031 -0.064,0.102 0,0.051 0,0.153 -0.039,0.242 -0.044,0.09 -0.178,0.185 -0.421,0.192 l -0.982,0.019 c -0.038,0 -0.057,-0.019 -0.057,-0.089 l 0,-1.596 c 0,-0.038 0.005,-0.057 0.044,-0.057 l 0.817,0.006 c 0.108,0 0.197,0 0.287,0.006 0.122,0.007 0.21,0.032 0.274,0.115 0.033,0.039 0.045,0.064 0.084,0.064 0.025,0 0.037,-0.019 0.037,-0.057 0,-0.039 -0.031,-0.198 -0.05,-0.396 -0.014,-0.127 -0.026,-0.421 -0.026,-0.465 0,-0.058 0,-0.122 -0.064,-0.122 -0.038,0 -0.051,0.044 -0.051,0.089 0,0.045 -0.013,0.122 -0.038,0.198 -0.032,0.089 -0.128,0.204 -0.326,0.23 -0.159,0.019 -0.835,0.019 -0.944,0.019 -0.032,0 -0.044,-0.013 -0.044,-0.057 l 0,-0.517 z"
         id="path27472"
         style="fill:#887e6e;fill-opacity:1;fill-rule:nonzero;stroke:none" />
      <path
         d="m 147.989,48.469 c 0,1.43 -0.824,2.316 -1.871,2.316 -0.733,0 -1.569,-0.408 -1.569,-1.997 0,-1.327 0.734,-2.38 1.958,-2.38 0.448,0 1.482,0.217 1.482,2.061 m -4.321,0.121 c 0,1.092 0.721,2.502 2.636,2.502 1.589,0 2.578,-0.926 2.578,-2.387 0,-1.461 -1.021,-2.616 -2.642,-2.616 -1.832,0 -2.572,1.372 -2.572,2.501"
         id="path27474"
         style="fill:#887e6e;fill-opacity:1;fill-rule:nonzero;stroke:none" />
      <path
         d="m 150.873,48.648 c 0,-0.07 0.012,-0.096 0.058,-0.115 0.133,-0.045 0.324,-0.064 0.484,-0.064 0.256,0 0.338,0.026 0.453,0.109 0.192,0.14 0.377,0.433 0.377,0.957 0,0.906 -0.6,1.168 -0.976,1.168 -0.16,0 -0.275,-0.007 -0.338,-0.026 -0.046,-0.013 -0.058,-0.038 -0.058,-0.089 l 0,-1.94 z m -0.754,0.504 c 0,0.97 0,1.149 -0.012,1.352 -0.012,0.218 -0.064,0.32 -0.274,0.364 -0.052,0.013 -0.159,0.02 -0.249,0.02 -0.07,0 -0.109,0.012 -0.109,0.057 0,0.045 0.044,0.058 0.141,0.058 0.338,0 0.739,-0.02 0.874,-0.02 0.217,0 0.702,0.02 0.9,0.02 0.402,0 0.829,-0.039 1.174,-0.275 0.178,-0.121 0.434,-0.446 0.434,-0.874 0,-0.472 -0.198,-0.907 -0.843,-1.429 0.569,-0.716 1.009,-1.283 1.385,-1.679 0.358,-0.37 0.619,-0.415 0.715,-0.434 0.07,-0.013 0.128,-0.019 0.178,-0.019 0.052,0 0.077,-0.019 0.077,-0.051 0,-0.051 -0.044,-0.064 -0.121,-0.064 l -0.606,0 c -0.357,0 -0.517,0.032 -0.683,0.121 -0.274,0.147 -0.517,0.447 -0.874,0.938 -0.255,0.352 -0.549,0.786 -0.632,0.881 -0.032,0.038 -0.07,0.045 -0.115,0.045 l -0.555,0.013 c -0.032,0 -0.051,-0.013 -0.051,-0.052 l 0,-0.089 c 0,-0.594 0,-1.097 0.031,-1.365 0.02,-0.186 0.058,-0.326 0.25,-0.352 0.095,-0.012 0.236,-0.025 0.312,-0.025 0.051,0 0.076,-0.019 0.076,-0.051 0,-0.045 -0.044,-0.064 -0.127,-0.064 -0.37,0 -0.842,0.019 -0.938,0.019 -0.122,0 -0.523,-0.019 -0.779,-0.019 -0.082,0 -0.127,0.019 -0.127,0.064 0,0.032 0.026,0.051 0.103,0.051 0.095,0 0.171,0.013 0.229,0.025 0.128,0.026 0.159,0.166 0.185,0.352 0.031,0.268 0.031,0.771 0.031,1.359 l 0,1.123 z"
         id="path27476"
         style="fill:#887e6e;fill-opacity:1;fill-rule:nonzero;stroke:none" />
      <path
         d="m 155.142,50.977 c 0.019,0.108 0.057,0.166 0.108,0.166 0.051,0 0.09,-0.032 0.173,-0.198 l 1.742,-3.599 1.735,3.644 c 0.045,0.102 0.083,0.153 0.141,0.153 0.057,0 0.096,-0.064 0.115,-0.198 l 0.58,-3.944 c 0.058,-0.402 0.121,-0.587 0.313,-0.644 0.186,-0.058 0.313,-0.064 0.396,-0.064 0.057,0 0.102,-0.006 0.102,-0.045 0,-0.051 -0.076,-0.07 -0.166,-0.07 -0.16,0 -1.04,0.019 -1.295,0.039 -0.148,0.013 -0.186,0.031 -0.186,0.07 0,0.031 0.026,0.051 0.071,0.07 0.038,0.013 0.057,0.095 0.031,0.275 l -0.383,2.807 -0.025,0 -1.391,-2.897 c -0.147,-0.3 -0.179,-0.358 -0.237,-0.358 -0.057,0 -0.121,0.128 -0.223,0.32 -0.153,0.293 -0.657,1.27 -0.734,1.448 -0.057,0.134 -0.44,0.938 -0.663,1.417 l -0.025,0 -0.333,-2.54 c -0.012,-0.115 -0.019,-0.197 -0.019,-0.3 0,-0.121 0.083,-0.178 0.192,-0.204 0.115,-0.026 0.203,-0.032 0.268,-0.032 0.051,0 0.095,-0.013 0.095,-0.045 0,-0.057 -0.057,-0.07 -0.153,-0.07 -0.267,0 -0.555,0.019 -0.669,0.019 -0.122,0 -0.428,-0.019 -0.633,-0.019 -0.063,0 -0.114,0.013 -0.114,0.07 0,0.032 0.038,0.045 0.102,0.045 0.051,0 0.096,0 0.191,0.019 0.179,0.039 0.23,0.287 0.262,0.504 l 0.632,4.161 z"
         id="path27478"
         style="fill:#887e6e;fill-opacity:1;fill-rule:nonzero;stroke:none" />
      <path
         d="m 163.181,48.163 c 0.032,0 0.038,0.019 0.032,0.038 l -0.574,1.576 c -0.006,0.026 -0.013,0.058 -0.032,0.058 -0.02,0 -0.033,-0.032 -0.038,-0.058 l -0.588,-1.57 c -0.006,-0.025 0,-0.044 0.026,-0.044 l 1.174,0 z m -1.302,-0.319 c -0.031,0 -0.044,-0.013 -0.057,-0.052 l -0.346,-0.912 c -0.063,-0.16 -0.095,-0.313 -0.095,-0.389 0,-0.115 0.058,-0.198 0.255,-0.198 l 0.097,0 c 0.076,0 0.095,-0.013 0.095,-0.051 0,-0.051 -0.038,-0.064 -0.109,-0.064 -0.203,0 -0.478,0.019 -0.676,0.019 -0.07,0 -0.421,-0.019 -0.753,-0.019 -0.083,0 -0.121,0.013 -0.121,0.064 0,0.038 0.026,0.051 0.077,0.051 0.057,0 0.146,0.006 0.197,0.013 0.294,0.038 0.415,0.255 0.543,0.574 l 1.601,4.008 c 0.077,0.184 0.115,0.255 0.179,0.255 0.058,0 0.096,-0.058 0.16,-0.204 0.152,-0.351 1.174,-2.955 1.582,-3.925 0.242,-0.574 0.428,-0.663 0.561,-0.696 0.097,-0.019 0.193,-0.025 0.269,-0.025 0.05,0 0.083,-0.006 0.083,-0.051 0,-0.051 -0.057,-0.064 -0.293,-0.064 -0.23,0 -0.697,0 -1.207,0.013 -0.115,0.006 -0.191,0.006 -0.191,0.051 0,0.038 0.025,0.051 0.089,0.057 0.045,0.013 0.09,0.071 0.057,0.147 l -0.51,1.353 c -0.013,0.032 -0.032,0.045 -0.064,0.045 l -1.423,0 z"
         id="path27480"
         style="fill:#887e6e;fill-opacity:1;fill-rule:nonzero;stroke:none" />
      <path
         d="m 166.48,47.046 c 0.013,-0.498 0.096,-0.664 0.224,-0.708 0.108,-0.039 0.229,-0.045 0.331,-0.045 0.071,0 0.109,-0.013 0.109,-0.051 0,-0.051 -0.058,-0.064 -0.147,-0.064 -0.415,0 -0.669,0.019 -0.791,0.019 -0.058,0 -0.358,-0.019 -0.689,-0.019 -0.083,0 -0.141,0.006 -0.141,0.064 0,0.038 0.038,0.051 0.102,0.051 0.083,0 0.198,0.006 0.288,0.032 0.165,0.051 0.191,0.236 0.197,0.791 l 0.058,3.778 c 0,0.128 0.019,0.217 0.083,0.217 0.07,0 0.127,-0.083 0.236,-0.198 0.076,-0.083 1.046,-1.123 1.978,-2.048 0.434,-0.434 1.296,-1.353 1.404,-1.455 l 0.032,0 -0.064,2.865 c -0.007,0.389 -0.064,0.51 -0.217,0.574 -0.095,0.039 -0.249,0.039 -0.338,0.039 -0.076,0 -0.102,0.018 -0.102,0.057 0,0.051 0.07,0.058 0.166,0.058 0.331,0 0.638,-0.02 0.772,-0.02 0.07,0 0.312,0.02 0.625,0.02 0.083,0 0.147,-0.007 0.147,-0.058 0,-0.039 -0.039,-0.057 -0.115,-0.057 -0.064,0 -0.115,0 -0.191,-0.02 -0.179,-0.05 -0.23,-0.184 -0.237,-0.542 l -0.07,-4.027 c 0,-0.14 -0.026,-0.197 -0.083,-0.197 -0.069,0 -0.147,0.07 -0.216,0.14 -0.402,0.383 -1.22,1.219 -1.884,1.876 -0.695,0.689 -1.403,1.487 -1.518,1.608 l -0.019,0 0.07,-2.68 z"
         id="path27482"
         style="fill:#887e6e;fill-opacity:1;fill-rule:nonzero;stroke:none" />
    </g>
  </g>
</svg>
