<svg xmlns="http://www.w3.org/2000/svg" width="77" height="72" viewBox="0 0 77 72" fill="none">
<path d="M37.7936 58.5985C37.9823 58.5985 38.4246 58.5833 38.6667 58.547C40.4947 58.2668 41.2743 57.3595 42.012 56.6866C42.3227 56.4026 42.8507 56.0423 43.9639 56.0938C44.8942 56.1338 47.5323 55.7011 48.7428 53.0191C49.5338 51.2673 48.9658 50.4705 49.4652 49.3859C49.7073 48.8636 50.4164 48.4614 51.0378 47.3749C51.8613 45.9376 52.1586 43.8275 50.8815 41.8755C50.2086 40.8481 49.6082 40.7128 49.3356 39.7997C49.0992 39.0067 49.4385 38.1928 48.8552 36.7574C48.1252 34.9751 47.0825 34.2908 45.7596 33.7342C45.0981 33.4559 44.0802 33.3911 43.4569 33.4044C42.4562 33.4235 41.7737 32.5962 41.4592 32.3046C40.4337 31.3553 39.1527 30.8845 37.8775 30.8768C36.6042 30.8845 35.3232 31.3553 34.2977 32.3046C33.9832 32.5962 33.3007 33.4235 32.3 33.4044C31.6767 33.3911 30.6588 33.454 29.9973 33.7342C28.6763 34.2908 27.6317 34.9751 26.9017 36.7574C26.3165 38.1928 26.6577 39.0048 26.4213 39.7997C26.1487 40.7128 25.5483 40.8481 24.8735 41.8755C23.5963 43.8275 23.8937 45.9395 24.7172 47.3749C25.3386 48.4595 26.0496 48.8636 26.2898 49.3859C26.7911 50.4686 26.2212 51.2673 27.0122 53.0191C28.2227 55.703 30.8608 56.1357 31.791 56.0938C32.9043 56.0442 33.4342 56.4045 33.7449 56.6866C34.4616 57.3404 35.2184 58.2173 36.9396 58.5223C37.2237 58.5718 37.6011 58.5985 37.7879 58.5985" fill="#F5F1EE"/>
<path d="M17.4412 14.4188C17.3383 14.2873 17.3402 14.0605 17.5327 13.9976C18.5811 13.6487 19.3092 13.4009 20.4644 13.0731C20.5216 13.0559 20.5769 13.0483 20.6302 13.0483C20.7961 13.0483 20.9314 13.1264 20.9943 13.2713L23.2455 18.5114L25.3366 12.2458C25.4281 11.9694 25.5863 11.8093 25.9027 11.7464C26.8597 11.5576 27.9004 11.3804 29.0213 11.2107C29.0346 11.2088 29.048 11.2069 29.0594 11.2069C29.2348 11.2069 29.332 11.3975 29.2329 11.5691C28.9164 12.1142 28.6419 12.9434 28.6419 14.4875V21.0619C28.6419 22.5964 28.9145 23.3569 29.2329 23.803C29.3396 23.9536 29.2195 24.1899 29.0213 24.2281C27.5383 24.514 26.4517 24.7618 25.1193 25.124C25.0964 25.1316 25.0755 25.1335 25.0564 25.1335C24.9001 25.1335 24.8162 24.9619 24.9096 24.7885C25.2222 24.209 25.4948 23.355 25.4948 21.8148V16.5957L23.0511 23.8754C22.9901 24.0565 22.8395 24.1594 22.7061 24.1594C22.5879 24.1594 22.4735 24.1004 22.4068 23.9536L19.8125 18.1435V23.6867C19.8125 25.2288 20.0774 25.8769 20.3862 26.2715C20.4911 26.4068 20.5178 26.6089 20.2928 26.6985C19.315 27.0816 18.6211 27.3676 17.6756 27.7812C17.649 27.7926 17.6204 27.7984 17.5956 27.7984C17.4622 27.7984 17.3611 27.6535 17.4412 27.4915C17.7462 26.8681 18.0092 25.9551 18.0092 24.4206V17.0684C18.0092 15.5244 17.7462 14.8172 17.4412 14.4265M33.2416 20.3776V8.98047C33.2416 7.43837 32.9652 6.65493 32.6468 6.17647C32.5401 6.01635 32.6163 5.79333 32.8603 5.77236C34.4196 5.64465 36.0856 5.55887 37.4866 5.55887C40.6338 5.55887 42.7878 6.47574 42.7878 9.31787C42.7878 10.9782 41.9338 12.4593 39.9113 12.8443C41.9033 13.5115 43.1957 15.1718 43.1957 17.6613C43.1957 20.9113 41.747 23.2311 38.0013 23.3322C36.2896 23.3798 34.3815 23.4503 32.8622 23.6238C32.847 23.6238 32.8317 23.6257 32.8184 23.6257C32.6011 23.6257 32.5496 23.4256 32.6507 23.2559C32.969 22.7203 33.2454 21.912 33.2454 20.3795M36.7185 12.0075C36.7642 12.0075 37.3361 12.0075 37.3685 12.0075C38.7047 12.0037 39.4271 10.9362 39.4271 9.57711C39.4271 8.218 39.1012 7.00757 37.4847 6.97135C37.3856 6.96945 36.8767 6.97135 36.7185 6.97135V12.0094V12.0075ZM36.7185 21.914C36.8748 21.9101 37.0311 21.9044 37.1874 21.9044C38.6532 21.8987 39.6902 21.4012 39.6902 17.707C39.6902 15.0117 38.9716 13.5191 37.1874 13.4924C37.1378 13.4924 36.8271 13.4924 36.7185 13.4924V21.912V21.914ZM12.2659 19.2796V27.3695C12.2659 28.9116 12.0105 29.8494 11.7188 30.5166C11.6426 30.6919 11.694 30.8292 11.8065 30.8292C11.8389 30.8292 11.8751 30.8178 11.9151 30.793C13.3219 29.939 14.5552 29.2776 15.8457 28.6314C16.0344 28.538 16.0077 28.3416 15.9048 28.2215C15.6036 27.8632 15.3444 27.2017 15.3444 25.6577V17.9986C15.3444 16.4565 15.6036 15.5778 15.9048 14.964C15.9906 14.7905 15.9239 14.6342 15.7847 14.6342C15.7599 14.6342 15.7313 14.6399 15.7027 14.6514C14.2331 15.2099 13.238 15.6102 11.8084 16.2602C11.6235 16.3441 11.6216 16.5614 11.7188 16.6834C12.0124 17.0475 12.2659 17.7318 12.2659 19.2758M52.5875 24.7561C52.881 24.4187 53.0907 23.9669 53.2851 23.1511L55.1932 15.1584C55.4582 14.0471 55.3896 13.3761 55.2352 12.8977C55.1856 12.7471 55.2714 12.6213 55.4086 12.6213C55.4296 12.6213 55.4506 12.6251 55.4715 12.6308C56.4856 12.8958 57.5035 13.1836 58.8493 13.6182C59.1486 13.7135 59.3926 13.9823 59.4459 14.3197L61.2987 26.0656C61.4703 27.1522 61.6209 27.7316 61.8897 28.3531C61.9697 28.536 61.9125 28.6695 61.7867 28.6695C61.7524 28.6695 61.7143 28.66 61.6724 28.639C60.0578 27.8517 59.1695 27.4705 57.8809 26.9501C57.7018 26.8777 57.7361 26.7061 57.8085 26.5708C58.0106 26.1953 58.165 25.4004 57.9743 23.8811C57.0498 23.5152 56.1158 23.1739 55.1761 22.8575C54.8863 24.209 55.0464 25.0763 55.2866 25.6444C55.3648 25.8331 55.2561 25.9627 55.1208 25.9341C54.9664 25.9017 53.4262 25.4004 52.6942 25.2021C52.4826 25.1449 52.4693 24.8914 52.5875 24.7561ZM55.5363 21.2868C56.2664 21.5365 56.9927 21.8034 57.7151 22.0855L56.7925 15.8313L55.5363 21.2868ZM44.1831 23.214C44.0763 23.3684 44.0801 23.5933 44.2803 23.6143C45.8872 23.7935 48.6264 24.1842 51.0663 24.8114C51.0892 24.819 51.1121 24.8209 51.133 24.8209C51.2436 24.8209 51.3237 24.7465 51.3237 24.6303V22.3238C51.3237 22.156 51.2398 22.0722 51.1254 22.0722C51.0568 22.0722 50.9767 22.1027 50.8986 22.1637C50.342 22.604 49.6195 22.9071 48.655 22.9071C48.3919 22.9071 48.1098 22.8842 47.8087 22.8346V17.789C48.5768 17.9396 49.5052 18.2712 50.0713 18.7497C50.1475 18.8145 50.2276 18.8469 50.2924 18.8469C50.3763 18.8469 50.4373 18.7935 50.4373 18.683V16.7901C50.4373 16.6357 50.3896 16.529 50.241 16.529C50.1971 16.529 50.1475 16.5366 50.0885 16.5557C49.753 16.6567 49.4194 16.6986 49.0801 16.6986C48.6645 16.6986 48.2433 16.6376 47.8106 16.5538V12.4078C49.2269 12.6041 50.2333 13.1931 51.2226 14.1882C51.2932 14.2587 51.377 14.2911 51.4514 14.2911C51.5562 14.2911 51.642 14.2244 51.642 14.1024V11.9865C51.642 11.8512 51.5467 11.7578 51.3828 11.7235C48.4625 11.104 44.5224 10.7342 44.3699 10.7342C44.1907 10.7342 44.0801 10.921 44.1812 11.0963C44.4976 11.6377 44.7721 12.3678 44.7721 13.9099V20.4443C44.7721 21.9807 44.4976 22.7508 44.1812 23.2102M68.0524 30.3202C68.1896 30.3202 68.3059 30.2535 68.3859 30.0591L70.7306 24.1251C70.7058 26.6337 70.681 28.5284 70.6562 31.0389C70.5819 32.0644 70.3436 32.5429 70.1206 32.7907C70.0291 32.8917 69.9833 33.0804 70.153 33.2081C71.2014 33.9954 72.4652 35.0609 73.9368 36.4105C73.9768 36.4486 74.0225 36.4658 74.0626 36.4658C74.1788 36.4658 74.2684 36.3285 74.2036 36.1455C73.9444 35.4136 73.7214 34.4719 73.7214 32.9317V23.7306C73.7233 22.1884 73.9615 21.5384 74.2074 21.1953C74.3104 21.0505 74.2684 20.8656 74.1293 20.7741C73.3611 20.2765 72.4404 19.718 71.6169 19.2377C71.5331 19.19 71.4492 19.1671 71.3653 19.1671C71.1766 19.1671 71.007 19.2853 70.9307 19.474L69.0321 24.2681L67.0326 17.2457C66.9525 16.9617 66.7333 16.6738 66.4969 16.5652C65.3151 16.0181 64.5507 15.6845 63.2735 15.1718C63.243 15.1584 63.2145 15.1527 63.1859 15.1527C63.0486 15.1527 62.9609 15.2938 63.0429 15.4672C63.3345 16.0829 63.5862 16.9884 63.5862 18.5286V26.2982C63.5862 27.8346 63.3689 28.5113 63.062 28.8868C62.9647 29.0069 62.9228 29.2032 63.1058 29.3004C63.8168 29.6759 64.3582 29.979 65.5667 30.6939C65.6048 30.7167 65.641 30.7263 65.6715 30.7263C65.784 30.7263 65.8393 30.589 65.7649 30.4136C65.4809 29.7465 65.2312 28.8048 65.2312 27.2646V21.3192L67.6482 29.8075C67.7493 30.1544 67.8675 30.3183 68.0524 30.3183M16.3566 15.0078C16.3451 15.0574 16.3299 15.107 16.307 15.1546C16.1602 15.452 15.9849 15.8923 15.8762 16.6014C15.8209 16.9826 15.7847 17.4401 15.7847 18.0006V25.6596C15.7847 26.8281 15.9334 27.5715 16.2422 27.9394C16.2689 27.9699 16.2918 28.0042 16.3108 28.0385C16.2479 27.703 16.2041 27.2665 16.2041 26.6756L16.2098 18.9708C16.2098 17.3219 16.4957 16.5061 16.7264 16.0372C16.8083 15.8694 16.8064 15.7055 16.7245 15.5568L16.3737 14.9163C16.3699 14.9468 16.3642 14.9773 16.3547 15.0078M20.2528 20.2079V23.681C20.2528 25.185 20.5101 25.7073 20.7332 25.9951C20.7465 26.0123 20.7579 26.0294 20.7694 26.0447C20.7027 25.6958 20.6607 25.2422 20.6607 24.6265V21.1172L20.2547 20.2079H20.2528ZM38.9563 15.349C38.5636 14.1539 37.8393 13.9442 37.1797 13.9347C37.1721 13.9347 37.1664 13.9347 37.1607 13.9347V21.4641H37.1855C37.3113 21.4641 37.439 21.4641 37.5667 21.4546V15.025C38.211 15.0669 38.6532 15.147 38.9563 15.351M16.4214 28.4655C16.4214 28.5837 16.3623 28.7076 16.347 28.7343C16.2822 28.8582 16.1793 28.9592 16.042 29.0259C14.5609 29.7694 13.3963 30.4098 12.142 31.1704C12.0352 31.2352 11.919 31.2695 11.8065 31.2714L12.1344 31.8585C12.1992 31.9729 12.4374 32.0682 12.649 31.9405C13.9052 31.1761 15.0851 30.5147 16.5682 29.7789C16.9227 29.6035 16.8598 29.2699 16.6978 29.0278C16.6025 28.8868 16.5072 28.7152 16.4214 28.4674M56.6972 18.214L56.0567 21.0009C56.274 21.0771 56.4875 21.1572 56.701 21.2334L56.9717 20.063L56.6991 18.2121L56.6972 18.214ZM65.6734 24.4797V27.2665C65.6734 28.4789 65.8259 29.411 66.1519 30.1925C66.1081 29.8208 66.0795 29.3938 66.0795 28.8906V25.9055L65.6734 24.4778V24.4797ZM37.1588 7.40787V11.5653H37.3647C37.4333 11.5653 37.5019 11.5615 37.5667 11.5538V8.25231C38.1977 8.2485 38.5999 8.30378 38.8572 8.4353C38.659 7.73764 38.2205 7.42693 37.4733 7.40978C37.378 7.40787 37.1607 7.40787 37.1607 7.40787M41.1217 12.911C41.5106 13.1398 41.8575 13.4105 42.1606 13.7193C43.1099 13.0483 43.6322 11.9598 43.6322 10.6198C43.6322 9.95644 43.5197 9.39412 43.3196 8.90804L43.1709 8.54968C43.291 9.28547 43.4244 11.7978 41.1198 12.9091M50.8776 16.9312V18.6868C50.8776 18.8698 50.8052 19.0127 50.7385 19.0833C50.6317 19.211 50.4754 19.291 50.2924 19.291C50.1209 19.291 49.9398 19.2186 49.7873 19.089C49.3946 18.7573 48.7999 18.5095 48.2509 18.3513V22.4496C48.3881 22.4629 48.5235 22.4687 48.655 22.4687V19.3139C49.2936 19.4683 50.058 19.7562 50.5383 20.1641C50.8871 20.4595 51.2817 20.2918 51.2817 19.922V18.0291C51.2817 17.9357 51.2703 17.8576 51.2398 17.7871L50.8738 16.9293L50.8776 16.9312ZM52.0823 14.1062C52.0747 14.1863 52.0728 14.3159 51.9851 14.4493C51.8745 14.6228 51.682 14.7333 51.4514 14.7333C51.255 14.7333 51.0587 14.6476 50.91 14.4989C50.0637 13.6487 49.2478 13.1646 48.2509 12.9358V16.184C48.3958 16.2068 48.5292 16.224 48.6569 16.2373V13.9137C49.814 14.1234 50.7308 14.6342 51.6782 15.5873C51.9718 15.8809 52.4883 15.7665 52.4883 15.3414V13.2256C52.4883 13.1569 52.475 13.094 52.4502 13.0368L52.0823 12.1714V14.1062ZM66.2281 30.6977C66.2224 30.7282 66.1385 31.1571 65.6715 31.1723C65.5591 31.1742 65.4485 31.1399 65.3418 31.077C64.3639 30.4975 63.7043 30.122 63.2087 29.8513L63.5461 30.8063C63.59 30.934 63.6815 31.0408 63.7997 31.1075C64.524 31.5135 65.0558 31.8414 66.0852 32.4819C66.1576 32.5257 66.2319 32.5448 66.3044 32.5448C66.535 32.5448 66.7619 32.3122 66.5922 31.9157C66.4569 31.6012 66.3254 31.2142 66.2262 30.6977M20.9009 26.5346C20.8933 26.5994 20.8704 26.9387 20.453 27.1026C19.4675 27.4915 18.785 27.7717 17.851 28.1796C17.769 28.2139 17.6833 28.233 17.5956 28.233C17.5822 28.233 17.5708 28.233 17.5594 28.2311L17.8625 28.7705C18.0073 29.024 18.2799 28.9726 18.3809 28.9268C19.4446 28.456 20.005 28.2406 20.9924 27.8536C21.3889 27.6973 21.3565 27.3123 21.183 27.0702C21.0801 26.9272 20.981 26.7614 20.899 26.5346M70.2673 26.506L68.7996 30.223C68.7672 30.3031 68.7271 30.3698 68.6871 30.4251C68.4908 30.711 68.2163 30.7606 68.0543 30.7606C67.9818 30.7606 67.917 30.751 67.856 30.7339L68.0829 31.3096C68.1705 31.525 68.3269 31.7861 68.6395 31.7861C68.8148 31.7861 69.0512 31.7156 69.1865 31.3782L70.2673 28.6695V26.506ZM75.1033 22.5163L74.6821 21.2182C74.6687 21.2582 74.6287 21.3497 74.5849 21.4298C74.4705 21.6318 74.3561 21.872 74.2856 22.2113C74.2074 22.6059 74.1674 23.1129 74.1674 23.7325V32.9336C74.1655 34.5062 74.4095 35.3983 74.623 36.0007C74.5982 35.6823 74.5849 35.3354 74.5849 34.937L74.5887 25.347C74.5887 24.1461 74.7183 23.3608 75.0157 22.9452C75.1014 22.8251 75.1472 22.6516 75.1053 22.5182M55.9709 24.4397C56.5218 24.6284 57.0727 24.8266 57.6198 25.0344C57.616 24.7942 57.6007 24.5178 57.5683 24.1938C56.8897 23.9288 56.2054 23.6772 55.523 23.4408C55.523 23.519 55.3095 24.5178 55.6945 25.4747C55.7517 25.6158 55.7689 25.7587 55.7422 25.8922C55.7155 26.0466 55.5687 26.3611 55.1437 26.3782C55.0731 26.3821 55.0007 26.3668 54.9283 26.3439C54.1887 26.1076 53.2718 25.8274 52.6237 25.6425L52.9611 26.4202C53.0183 26.5536 53.1269 26.6451 53.268 26.687C53.918 26.8719 54.8482 27.2017 55.6107 27.4438C55.6621 27.4591 55.7117 27.4686 55.7613 27.4686C56.0548 27.4686 56.2512 27.1807 56.1177 26.8586C55.8489 26.2143 55.7994 25.3889 55.969 24.4416M52.1719 24.4492V23.5609C52.1719 23.4732 52.1529 23.3951 52.1224 23.3245L51.764 22.482V24.6284C51.764 24.6741 51.7602 24.7027 51.7506 24.7599C51.7201 24.9924 51.4666 25.265 51.133 25.2593C51.072 25.2593 51.013 25.2517 50.9539 25.2345C48.1746 24.5216 45.1038 24.1461 44.2307 24.0489C44.2269 24.0489 44.2231 24.047 44.2174 24.047L44.5395 24.737C44.6005 24.8685 44.7206 24.9543 44.8712 24.9734C46.9146 25.2326 48.7751 25.5281 51.6267 26.2601C51.8441 26.3153 52.1719 26.2524 52.1719 25.8655C52.1719 25.8655 52.1681 24.453 52.1719 24.4473M29.7094 23.9955C29.7075 24.026 29.6961 24.23 29.5245 24.4149C29.3949 24.554 29.2729 24.6246 29.1032 24.657C27.624 24.9505 26.5375 25.1926 25.2356 25.5471C25.1746 25.5624 25.1155 25.5719 25.0564 25.5719C25.0412 25.5719 25.0259 25.5719 25.0107 25.57L25.3214 26.14C25.4243 26.3306 25.6454 26.3535 25.796 26.3134C27.1132 25.9608 28.1978 25.7301 29.6846 25.4423C30.1345 25.3565 30.2031 24.8857 30.0392 24.6589C29.9019 24.4682 29.7952 24.2586 29.7094 23.9955ZM25.0526 19.3006L23.4685 24.0184C23.4419 24.0965 23.4056 24.1671 23.3599 24.23C23.2093 24.4549 22.9672 24.5979 22.7042 24.5979C22.6203 24.5979 22.5383 24.5826 22.4621 24.5578L22.7709 25.2422C22.8662 25.4557 23.0549 25.5834 23.2798 25.5834C23.5219 25.5834 23.7526 25.4061 23.8422 25.143L25.0526 21.5747V19.3006ZM29.7037 11.5348C29.7018 11.5538 29.6961 11.571 29.6922 11.5881C29.6922 11.592 29.6903 11.5977 29.6903 11.6015C29.6884 11.6091 29.6865 11.6167 29.6846 11.6224C29.6713 11.6758 29.6522 11.7254 29.6236 11.7749C29.4635 12.0494 29.2672 12.4745 29.1585 13.2332C29.1109 13.5744 29.0823 13.9861 29.0823 14.4836V21.0581C29.0823 22.2475 29.2481 23.0615 29.5912 23.5437C29.595 23.5495 29.5988 23.5571 29.6046 23.5647C29.5417 23.2102 29.5093 22.7736 29.5093 22.2018V15.513C29.5093 14.2568 29.6675 13.3666 30.0487 12.7109C30.1402 12.5546 30.144 12.3887 30.0582 12.2229L29.7037 11.5329V11.5348ZM43.5922 16.4546L43.4816 16.2164C43.5826 16.6681 43.6303 17.1294 43.636 17.6593C43.6379 18.0425 43.5922 18.5915 43.5769 18.7421C43.4397 20.0402 42.9955 21.5422 41.7184 22.5563C40.7824 23.2998 39.6139 23.7229 38.0108 23.7706C36.4478 23.8182 34.4539 23.885 32.9099 24.0584C32.8737 24.0622 32.8451 24.0641 32.8146 24.0641C32.7822 24.0641 32.7517 24.0622 32.7212 24.0584L33.0395 24.6932C33.1081 24.8304 33.2759 24.9162 33.4913 24.8914C35.0467 24.7161 36.9491 24.6303 38.6208 24.6131C42.7515 24.5674 44.0382 21.7748 44.0401 18.7135C44.0401 17.8481 43.8895 17.0989 43.5903 16.4546M57.8238 27.4019L58.1516 28.2692C58.1821 28.3473 58.2431 28.4598 58.3994 28.5189C59.2382 28.8372 61.2625 29.817 61.7829 30.0915C62.1584 30.2821 62.4405 30.366 62.6521 30.1125C62.8504 29.8761 62.7379 29.5978 62.6845 29.451C62.6521 29.3633 62.5435 28.9268 62.4958 28.6695C62.4806 28.7286 62.3052 29.3233 61.6075 29.0888C61.1157 28.9249 60.4772 28.374 57.8238 27.4038M62.4577 28.3264C62.3834 27.9127 62.2175 26.4431 62.1508 26.0237C62.0784 25.5662 60.5458 15.858 60.5458 15.858C60.5325 15.7779 60.4905 15.7131 60.4638 15.6445L59.9091 14.5141L61.6704 25.6768C61.7238 26.0123 61.7791 26.3192 61.8382 26.5956C61.8706 26.7366 62.0574 27.8536 62.4558 28.3245M9.73066 27.7202V15.2023C9.73066 13.6583 9.98037 12.7509 10.2701 12.1352C10.3521 11.9618 10.2854 11.8035 10.1576 11.8035C10.1329 11.8035 10.1062 11.8112 10.0757 11.8245C8.67654 12.4612 7.52139 12.993 5.79057 13.9156C5.61711 14.0071 5.61329 14.213 5.7067 14.333C5.98309 14.6895 6.22518 15.3624 6.22518 16.9045V30.2878C6.22518 32.825 5.50273 33.78 4.79935 33.78C4.24465 33.78 4.04831 32.9031 4.04831 31.727V28.4808C4.04831 28.2902 3.95682 28.1815 3.81957 28.1815C3.74142 28.1815 3.64992 28.2177 3.5508 28.2902C2.43949 29.1213 1.55693 29.8818 0.108225 31.1361C-0.0518944 31.2752 -0.00995822 31.4582 0.0777264 31.5516C0.441808 31.9462 0.561898 32.1864 0.561898 33.5169V33.9897C0.563804 35.4708 1.32818 36.4658 2.89888 36.4658C5.68001 36.4658 9.73066 33.3568 9.73066 27.7164M10.7352 12.1085C10.7314 12.1352 10.7238 12.1638 10.7162 12.1924C10.7142 12.2057 10.7085 12.2191 10.7047 12.2343C10.7047 12.2343 10.7047 12.2362 10.7047 12.2381C10.6971 12.2648 10.6895 12.2915 10.6761 12.3182C10.4645 12.7662 10.3216 13.3037 10.2415 13.9423C10.1958 14.3254 10.1729 14.7448 10.1729 15.2042V27.7221C10.1729 28.2806 10.1348 28.8163 10.0623 29.3271C9.805 31.1856 9.00249 32.8555 8.18093 33.9096C7.21068 35.1505 5.34261 36.8527 2.90079 36.9118C2.41852 36.9252 1.99154 36.8261 1.62364 36.664C2.00488 37.0986 2.63011 37.5714 3.51839 37.5714C7.3422 37.5714 10.6437 33.3091 10.6437 28.5932V16.306C10.6437 15.0479 10.7467 14.0757 11.0955 13.3361C11.1755 13.1665 11.1698 13.0178 11.1031 12.8748L10.7371 12.1085H10.7352ZM4.48864 31.7289C4.48864 33.0442 4.7517 33.3415 4.79935 33.3415C4.83366 33.3415 4.86797 33.3358 4.9061 33.3225C4.89657 33.1871 4.89466 33.0022 4.89466 32.7563V29.5425C4.89466 29.4415 4.87369 29.3443 4.82794 29.2509L4.49055 28.5704V31.7289H4.48864ZM73.1762 37.375C73.7271 37.8726 74.1369 38.3605 74.5925 38.0594C74.8555 37.8859 74.8441 37.5943 74.827 37.4723C74.8231 37.457 74.6992 36.7555 74.6592 36.3895C74.6573 36.4048 74.6535 36.4219 74.6497 36.4372C74.6344 36.5058 74.6077 36.5744 74.5658 36.6316C74.5639 36.6335 74.562 36.6354 74.5601 36.6392C74.5563 36.6431 74.5525 36.6488 74.5506 36.6545C74.4381 36.8146 74.257 36.9099 74.0664 36.9099C73.912 36.9099 73.7614 36.8489 73.6413 36.7384C72.3108 35.5165 71.1232 34.5062 70.1015 33.7247L70.4484 34.8894C70.4789 34.998 70.5457 35.0895 70.6372 35.162C71.4206 35.7948 72.2136 36.4715 73.1762 37.3769M77 24.0355C77 24.5655 76.5711 24.9944 76.0412 24.9944C75.5113 24.9944 75.0805 24.5655 75.0805 24.0355C75.0805 23.5056 75.5094 23.0748 76.0412 23.0748C76.573 23.0748 77 23.5037 77 24.0355ZM76.7713 24.0355C76.7713 23.6086 76.4529 23.2902 76.0393 23.2902C75.6256 23.2902 75.3073 23.6086 75.3073 24.0355C75.3073 24.4625 75.6256 24.7809 76.0393 24.7809C76.4529 24.7809 76.7713 24.4625 76.7713 24.0355ZM76.2585 24.1156L76.472 24.5464H76.2127L76.0278 24.1518H75.9192V24.5464H75.6905V23.5247H76.106C76.3138 23.5247 76.4453 23.6753 76.4453 23.8468C76.4453 23.986 76.3557 24.0775 76.2566 24.1175M76.2185 23.8449C76.2185 23.7725 76.1632 23.7134 76.0793 23.7134H75.9192V23.9784H76.0793C76.1632 23.9784 76.2185 23.9174 76.2185 23.8468" fill="#3C3C3C"/>
<path d="M43.4588 33.4045C44.0821 33.3911 45.1 33.4559 45.7615 33.7342C47.0824 34.2908 48.127 34.9752 48.8571 36.7575C49.4423 38.1909 49.1011 39.0029 49.3394 39.7997C49.3413 39.8054 49.3432 39.8112 49.3451 39.8188C49.5719 39.5481 49.8216 39.2317 50.0904 38.8638C51.0816 37.5066 51.5849 36.1284 51.6592 35.6404C51.7335 35.1524 51.4972 34.8093 51.1769 34.5463C50.8586 34.2832 50.5803 34.1326 49.5948 33.2405C49.1869 32.8707 48.5845 32.2951 48.0965 31.7785C47.5781 31.2276 47.1396 30.6843 46.9604 30.4499C46.7984 30.2421 46.6078 29.9981 46.4839 29.8799C46.3733 29.7751 46.2418 29.7027 46.1008 29.6836C45.7519 29.634 44.938 29.9238 43.7542 30.8826C42.9613 31.525 42.2121 32.255 41.8195 32.6534C42.1912 33.0004 42.744 33.4216 43.4607 33.4064M46.0703 30.8311C46.1903 30.4785 46.2132 30.2516 46.2361 30.0572C46.2456 29.9733 46.3143 30.0172 46.3676 30.0591C46.5868 30.2307 47.4503 31.5707 48.3501 32.4742C49.1602 33.2882 49.835 33.9229 50.6623 34.5787C50.8395 34.7197 50.952 34.7979 51.0206 34.8665C51.3046 35.0972 51.3523 35.4174 51.2799 35.711C51.2436 35.8939 51.1483 36.2047 50.9196 36.6984C50.2238 38.1928 49.5205 38.6389 49.6139 38.4597C49.6177 38.454 49.7244 38.2957 49.793 38.1814C49.936 37.945 50.0999 37.701 50.3554 37.0663C50.5231 36.6507 50.7252 36.1093 50.7843 35.5413C50.7862 35.4975 50.7843 35.4631 50.7747 35.4422C50.7328 35.3354 50.5307 35.8959 50.2772 36.2733C49.9837 36.7136 49.6329 37.0205 49.631 36.9385C49.6272 36.8318 50.0313 36.1837 50.1972 35.4708C50.2296 35.3278 50.2429 35.2058 50.2448 35.1067C50.2238 35.0038 50.1114 35.2363 49.8617 35.6099C49.5681 36.0483 49.3089 36.1856 49.307 36.1246C49.307 36.0178 49.5471 35.5909 49.6444 35.1467C49.6806 34.9809 49.692 34.8474 49.6882 34.7388C49.6882 34.7064 49.6844 34.6778 49.6806 34.6587C49.6615 34.5463 49.549 34.7807 49.2974 35.1582C49.0039 35.5966 48.7446 35.7338 48.7427 35.6747C48.7408 35.568 48.981 35.141 49.0801 34.6969C49.0935 34.634 49.1049 34.5768 49.1106 34.5234C49.1202 34.3995 49.1183 34.3023 49.1087 34.2489C49.0897 34.1345 48.9963 34.3156 48.7446 34.6931C48.4511 35.1315 48.2223 35.1982 48.2223 35.1391C48.2223 35.0324 48.3996 34.7407 48.4987 34.2947C48.5178 34.2089 48.5292 34.1326 48.5369 34.0621C48.5464 33.9344 48.5445 33.8353 48.535 33.78C48.5159 33.6675 48.4511 33.799 48.1995 34.1784C47.9059 34.6168 47.681 34.695 47.6791 34.634C47.6772 34.5272 47.8621 34.2127 47.9593 33.7685C47.9879 33.6408 48.0012 33.5303 48.0031 33.4369C48.0031 33.3644 48.0012 33.3053 47.9955 33.2672C47.9764 33.1548 47.9059 33.2996 47.6524 33.6771C47.3588 34.1155 47.1053 34.2413 47.1053 34.1822C47.1053 34.0754 47.336 33.6427 47.4351 33.1986C47.4484 33.1357 47.4599 33.0785 47.4656 33.0251V33.0213C47.4847 32.865 47.4789 32.743 47.4694 32.6801C47.4503 32.5677 47.3588 32.7811 47.1053 33.1586C46.8118 33.597 46.4896 33.82 46.4877 33.759C46.4858 33.6523 46.8289 33.008 46.9261 32.5619C46.97 32.358 46.9814 32.2017 46.9814 32.0873C46.9814 32.053 46.9776 32.0244 46.9738 32.0015C46.9547 31.889 46.8232 32.2017 46.5697 32.5791C46.421 32.8021 46.2266 33.027 46.0664 33.1891C45.912 33.3454 45.7805 33.4273 45.7767 33.3987C45.7557 33.2558 46.2456 32.6077 46.381 31.9748C46.4153 31.8185 46.4305 31.6832 46.4382 31.5707C46.4382 31.5173 46.4343 31.4735 46.4286 31.4449C46.4115 31.3363 46.2838 31.6527 46.0417 32.0168C45.9082 32.2169 45.7138 32.4476 45.6185 32.5429C45.3307 32.8345 45.1286 32.9794 44.9971 33.048C44.9875 33.0518 44.9818 33.0575 44.9761 33.0594C44.9361 33.0804 44.8293 33.1262 44.8217 33.0842C44.8217 33.0747 44.8427 33.0404 44.8446 33.0366C44.8999 32.947 45.182 32.6134 45.5022 32.0873C45.7462 31.6832 45.9769 31.0885 46.0703 30.8368M43.8476 31.2562C43.9086 31.199 44.3089 30.8406 44.6006 30.6691C45.018 30.4232 45.426 30.2593 45.5232 30.5376C45.6032 30.7663 45.3593 31.4049 44.7779 32.1845C44.166 33.0061 43.8438 33.1567 43.8305 33.1243C43.8171 33.0919 44.1126 32.6992 44.3337 32.3732C44.5796 32.013 44.8808 31.605 44.9856 31.1857C45.0829 30.8006 44.9723 30.6958 44.6921 30.8178C44.328 30.9741 44.0897 31.1494 43.9201 31.2753C43.596 31.5154 43.7943 31.3038 43.8476 31.2543" fill="#CD9300"/>
<path d="M49.9817 61.8867C49.8254 61.8238 49.5433 61.6446 49.3717 61.4692C49.1983 61.292 48.9333 60.9698 48.7331 60.6782C48.6378 60.5295 48.5273 60.3579 48.4015 60.1482C47.9783 59.4411 47.4007 58.1372 47.151 57.3976C46.7507 56.212 46.6668 55.4609 46.6573 55.3618C45.5917 55.9832 44.4995 56.1167 43.9658 56.0938C42.8526 56.0442 42.3226 56.4045 42.0138 56.6866C41.2876 57.35 40.5194 58.2402 38.7485 58.5337C38.7676 58.6271 38.8324 58.9226 38.9563 59.3953C39.0745 59.8337 39.429 61.0194 39.9933 62.0716C40.1534 62.3709 40.3307 62.6759 40.5346 62.9961C40.5975 63.0971 40.6643 63.1924 40.7253 63.2896C40.7329 63.2992 40.7405 63.3106 40.7462 63.322C41.1866 63.9835 41.7756 64.7193 42.1797 65.1177C42.8259 65.7563 43.4454 66.1661 43.7332 66.3414C43.8438 66.4082 43.8991 66.4387 43.8991 66.4387C43.8991 66.4387 43.9029 66.4425 43.9067 66.4406C43.9105 66.4406 43.9067 66.4329 43.9048 66.4101V66.4024C43.901 66.3777 43.8952 66.3357 43.8857 66.2652C43.8628 66.0956 43.6875 64.7784 43.9238 63.404C44.1316 62.1936 44.6615 61.3511 44.7854 61.1662C44.9703 61.2901 45.2772 61.4864 45.6604 61.6961C46.3009 62.0449 47.2406 62.4357 48.045 62.5062C48.4567 62.5424 48.817 62.5005 49.1201 62.4319C49.8921 62.2584 50.2772 61.9553 50.2409 61.9496C50.2295 61.9477 50.138 61.9496 49.9817 61.8886M49.6977 62.0716C49.3565 62.1669 48.6435 62.327 47.6333 62.0716C46.6459 61.82 46.1941 61.536 45.931 61.3091C46.1503 61.3777 46.6401 61.5684 47.1701 61.7075C47.8849 61.8962 48.3462 61.8562 48.5349 61.7933C48.5749 61.7799 48.5578 61.7666 48.4968 61.7494C48.249 61.6827 47.5704 61.6103 46.7679 61.292C45.7709 60.8974 44.8636 60.3084 44.8255 60.3084C44.814 60.3084 44.7244 60.3579 44.591 60.4685C44.2974 60.7125 43.7866 61.2557 43.4225 62.2222C42.8945 63.6251 43.1099 64.5344 43.148 64.7403C43.1861 64.948 43.1995 64.9366 43.2204 64.3457C43.2357 63.9263 43.3748 63.3754 43.5464 62.8207C43.7065 62.3041 43.9467 62.0125 43.9639 62.0468C44.002 62.1212 43.6703 62.8074 43.5826 64.0254C43.5273 64.786 43.5731 65.3845 43.6684 65.9412C43.5693 65.8725 43.27 65.6362 42.9441 65.3369C42.7363 65.1482 42.5094 64.8985 42.3112 64.664C41.6154 63.8501 41.2399 63.1943 40.8777 62.5119C40.344 61.4464 39.9628 60.3484 39.9075 59.9748C39.8846 59.8089 39.8999 59.7251 40.081 60.0548C40.1115 60.1101 40.7786 61.5283 41.2914 62.3003C41.6745 62.876 42.1301 63.6004 42.4675 63.9073C42.5628 63.993 42.5647 63.9397 42.5037 63.8329C42.4294 63.7071 41.7107 62.2546 41.3753 61.4883C41.097 60.8535 41.0283 60.3713 41.0302 60.2931C41.0321 60.1978 41.0379 60.1387 41.0703 60.1673C41.1465 60.2321 41.3181 60.6362 41.5506 61.0346C41.827 61.5093 42.1797 61.9953 42.3874 62.1421C42.477 62.205 42.4313 62.0964 42.397 62.0106C42.336 61.8581 42.0596 61.2672 41.8442 60.6686C41.6822 60.2169 41.6307 59.9386 41.6212 59.8013C41.6135 59.666 41.6116 59.6126 41.6478 59.6202C41.705 59.6336 41.8251 59.9195 42.0767 60.3389C42.3874 60.8554 42.599 61.0994 42.6848 61.1604C42.7553 61.2119 42.7611 61.17 42.7382 61.1013C42.7134 61.0327 42.4942 60.4685 42.3817 60.0987C42.2273 59.5878 42.1415 59.2314 42.1625 59.016C42.1759 58.8768 42.2025 58.8921 42.235 58.9531C42.2674 59.0141 42.4351 59.3877 42.6124 59.7079C42.7382 59.9329 43.0184 60.3617 43.1423 60.4685C43.2548 60.5638 43.2224 60.4723 43.2071 60.4151C43.1976 60.3713 43.1156 60.0453 42.965 59.5916C42.8697 59.3019 42.8259 59.056 42.7877 58.8844C42.7668 58.7891 42.7191 58.4708 42.7839 58.5032C42.8125 58.5166 43.0794 59.0064 43.2204 59.2485C43.4416 59.626 43.6474 59.9348 43.7389 60.032C43.8171 60.1158 43.8705 60.1483 43.859 60.0796C43.8457 60.011 43.6989 59.5078 43.5902 59.1056C43.5159 58.8311 43.4301 58.4918 43.4187 58.3278C43.4092 58.1906 43.4092 58.1048 43.4435 58.1105C43.4968 58.1182 43.6512 58.5013 43.88 58.9264C44.1068 59.3515 44.4194 59.7975 44.5472 59.8985C44.673 59.9996 44.5738 59.6984 44.4214 59.2085C44.3241 58.8959 44.1945 58.507 44.1545 58.1887C44.1278 57.9676 44.1469 57.878 44.1735 57.8856C44.225 57.9028 44.3203 58.2039 44.6711 58.8673C45.0256 59.5326 45.2124 59.7232 45.2887 59.8089C45.363 59.8928 45.4297 59.8947 45.403 59.8147C45.3763 59.7346 45.2372 59.2752 45.1019 58.8139C44.9703 58.3622 44.8464 57.695 44.9246 57.7579C45.0027 57.8208 45.1609 58.2116 45.4621 58.8444C45.7652 59.4754 46.0302 59.7499 46.1941 59.8776C46.2742 59.9405 46.2684 59.8985 46.2341 59.788C46.2017 59.687 46.1541 59.544 45.9635 59.0026C45.7709 58.4498 45.6108 57.6607 45.6432 57.5654C45.6756 57.4643 45.9978 58.2478 46.3123 58.8539C46.6268 59.4601 47.0042 59.8719 47.1434 59.9881C47.2825 60.1063 47.1567 59.8452 47.1567 59.8452C47.1243 59.7308 46.9718 59.5097 46.764 58.7167C46.5639 57.9485 46.4762 57.2318 46.5201 57.1803C46.5353 57.1613 46.5734 57.2146 46.6096 57.289C46.6192 57.3137 46.6306 57.3385 46.6401 57.3671C46.8441 57.9275 47.2597 58.9416 47.6409 59.6584C47.8811 60.1101 48.1518 60.4914 48.4587 60.8478C48.8761 61.332 49.0743 61.5035 49.366 61.698C49.5852 61.8467 49.7815 61.9591 49.9112 61.9973C49.9112 61.9973 49.8387 62.022 49.6939 62.0621" fill="#CD9300"/>
<path d="M25.6226 38.8619C25.9047 39.2507 26.1677 39.5786 26.4041 39.8607C26.4117 39.8397 26.4194 39.8207 26.4251 39.7997C26.6614 39.0048 26.3221 38.1928 26.9073 36.7574C27.6355 34.9752 28.6801 34.2908 30.003 33.7342C30.6644 33.4559 31.6823 33.3911 32.3057 33.4045C33.0033 33.4197 33.5466 33.0213 33.9183 32.6782C33.9183 32.6782 33.9164 32.6744 33.9145 32.6744C33.5333 32.2855 32.7841 31.5478 31.9607 30.8807C30.7769 29.9218 29.963 29.6321 29.6141 29.6817C29.475 29.7026 29.3415 29.7732 29.231 29.878C29.1071 29.9962 28.9165 30.2383 28.7544 30.448C28.5753 30.6805 28.1368 31.2257 27.6184 31.7747C27.1304 32.2931 26.528 32.8688 26.1201 33.2367C25.1327 34.1288 24.8563 34.2794 24.5361 34.5424C24.2177 34.8055 23.9794 35.1486 24.0557 35.6366C24.13 36.1246 24.6333 37.5028 25.6245 38.86M30.1879 30.5375C30.2851 30.2592 30.693 30.4232 31.1105 30.6691C31.4021 30.8406 31.8024 31.1971 31.8634 31.2562C31.9168 31.3057 32.1151 31.5173 31.791 31.2771C31.6214 31.1513 31.3812 30.9779 31.019 30.8197C30.7407 30.6977 30.6301 30.8025 30.7254 31.1876C30.8322 31.605 31.1353 32.0148 31.3793 32.3751C31.5985 32.6992 31.8939 33.0918 31.8825 33.1242C31.8692 33.1567 31.5489 33.0061 30.9351 32.1864C30.3537 31.4049 30.1078 30.7663 30.1898 30.5375M24.6905 34.8684C24.7591 34.8017 24.8734 34.7235 25.0488 34.5806C25.8761 33.9229 26.5509 33.2901 27.361 32.4761C27.8185 32.0167 28.3027 31.4049 28.682 30.9035C29.048 30.4194 29.3111 30.0419 29.4197 30.0133C29.536 29.9828 29.4197 30.1544 29.6408 30.8311C29.7247 31.0865 29.963 31.6774 30.2089 32.0816C30.5291 32.6077 30.8112 32.9413 30.8665 33.0308C30.8665 33.0347 30.8913 33.069 30.8894 33.0785C30.8817 33.1223 30.775 33.0747 30.7331 33.0537C30.7293 33.0518 30.7216 33.0461 30.7121 33.0423C30.5806 32.9756 30.3804 32.8288 30.0907 32.5371C29.9954 32.4418 29.8028 32.2112 29.6675 32.011C29.4254 31.6489 29.2977 31.3305 29.2806 31.4392C29.2748 31.4697 29.271 31.5116 29.271 31.565C29.2786 31.6774 29.2939 31.8128 29.3263 31.9691C29.4635 32.6019 29.9515 33.2501 29.9306 33.393C29.9267 33.4216 29.7952 33.3396 29.6408 33.1833C29.4826 33.0232 29.2863 32.7964 29.1376 32.5734C28.8841 32.1959 28.7525 31.8814 28.7335 31.9939C28.7297 32.0148 28.7259 32.0453 28.7259 32.0797C28.7259 32.194 28.7354 32.3503 28.7811 32.5562C28.8783 33.0003 29.2215 33.6465 29.2196 33.7514C29.2196 33.8124 28.8955 33.5894 28.6019 33.1509C28.3484 32.7735 28.2569 32.56 28.2379 32.6725C28.2264 32.7354 28.2226 32.8574 28.2417 33.0137C28.2417 33.0156 28.2417 33.0156 28.2417 33.0175C28.2493 33.0709 28.2588 33.13 28.2722 33.191C28.3694 33.637 28.6019 34.0697 28.6019 34.1746C28.6019 34.2356 28.3465 34.1078 28.0549 33.6694C27.8014 33.292 27.7308 33.1471 27.7118 33.2596C27.706 33.2977 27.7022 33.3549 27.7041 33.4273C27.7079 33.5207 27.7194 33.6313 27.748 33.759C27.8452 34.2051 28.0301 34.5196 28.0282 34.6244C28.0282 34.6854 27.8014 34.6092 27.5078 34.1688C27.2562 33.7914 27.1914 33.658 27.1723 33.7704C27.1628 33.8257 27.159 33.9248 27.1704 34.0526C27.178 34.1212 27.1895 34.1993 27.2085 34.287C27.3057 34.7331 27.4849 35.0247 27.4849 35.1296C27.4849 35.1905 27.2543 35.1219 26.9626 34.6835C26.7091 34.3061 26.6157 34.1269 26.5985 34.2394C26.589 34.2927 26.5852 34.39 26.5966 34.5139C26.6043 34.5672 26.6138 34.6263 26.6271 34.6873C26.7244 35.1334 26.9664 35.5603 26.9645 35.6652C26.9645 35.7262 26.7034 35.5889 26.4098 35.1486C26.1582 34.7712 26.0458 34.5367 26.0267 34.6492C26.0229 34.6702 26.021 34.6988 26.0191 34.7293C26.0172 34.8379 26.0286 34.9713 26.0629 35.1391C26.1601 35.5832 26.4022 36.0102 26.4003 36.117C26.4003 36.178 26.1392 36.0407 25.8437 35.6023C25.5959 35.2287 25.4834 34.9961 25.4625 35.0991C25.4644 35.2001 25.4777 35.3202 25.5101 35.4631C25.676 36.176 26.0801 36.8261 26.0763 36.9309C26.0724 37.0148 25.7217 36.706 25.4281 36.2656C25.1765 35.8882 24.9745 35.3278 24.9306 35.4345C24.9211 35.4555 24.9211 35.4917 24.9211 35.5337C24.9783 36.1017 25.1822 36.6431 25.35 37.0586C25.6054 37.6934 25.7675 37.9374 25.9123 38.1737C25.9809 38.2881 26.0896 38.4463 26.0915 38.4539C26.1868 38.6331 25.4815 38.1871 24.7858 36.6926C24.5551 36.1989 24.4617 35.8882 24.4255 35.7052C24.3531 35.4117 24.4007 35.0914 24.6847 34.8608" fill="#CD9300"/>
<path d="M31.7967 56.0919C32.9099 56.0423 33.4398 56.4026 33.7505 56.6847C34.4539 57.3271 35.1935 58.183 36.8519 58.5032C36.829 58.6176 36.7394 59.0427 36.5564 59.6774C36.3315 60.4933 35.9179 61.6637 35.0639 62.9961C34.4901 63.8901 33.9411 64.603 33.4131 65.1177C32.5153 65.9965 31.6899 66.4311 31.6899 66.4311C31.6899 66.4311 31.6766 66.4368 31.6804 66.4177C31.6804 66.4158 31.6804 66.4101 31.6804 66.4063C31.6842 66.3834 31.6899 66.3358 31.7014 66.2538C31.7262 66.0841 31.8996 64.7917 31.6652 63.4193C31.6232 63.1772 31.5679 62.9485 31.5069 62.7369C31.261 61.8982 30.9027 61.3225 30.8017 61.1681C30.5996 61.3091 30.2527 61.5398 29.8505 61.759C29.2119 62.1078 27.9881 62.5596 26.9435 62.6549C25.8989 62.7502 25.3938 62.592 25.3938 62.592C26.2745 61.8238 26.4784 61.4616 26.8006 60.947C26.8387 60.886 26.8768 60.8231 26.9187 60.7563C27.218 60.2626 27.5497 59.5821 27.8566 58.8921C27.9881 58.5947 28.1158 58.2955 28.2321 58.0057C28.2512 57.96 28.2683 57.9161 28.2874 57.8704C28.3598 57.6931 28.4284 57.5215 28.4875 57.3557C28.5428 57.1994 28.5943 57.045 28.6381 56.8944C28.8002 56.3416 28.8878 55.8403 28.9336 55.5258C28.9469 55.4247 28.9546 55.3409 28.9584 55.2722C30.0697 55.9737 31.242 56.1186 31.7986 56.0938C32.9118 56.0443 33.4417 56.4045 33.7524 56.6866M35.5137 60.0606C35.4832 60.1178 34.8828 61.4426 34.37 62.2165C33.9888 62.7922 33.4627 63.6328 33.1234 63.9397C33.03 64.0236 33.0262 63.9721 33.0872 63.8653C33.1596 63.7376 33.882 62.2603 34.2175 61.494C34.4958 60.8593 34.5645 60.377 34.5626 60.2989C34.5607 60.2036 34.5549 60.1445 34.5206 60.1731C34.4463 60.2379 34.2728 60.6439 34.0422 61.0404C33.7658 61.515 33.4131 62.0011 33.2034 62.1479C33.1139 62.2127 33.1615 62.1021 33.1958 62.0182C33.2568 61.8638 33.5332 61.2729 33.7486 60.6744C33.9106 60.2226 33.9621 59.9443 33.9697 59.8071C33.9774 59.6717 33.9793 59.6184 33.943 59.626C33.8859 59.6393 33.7658 59.9252 33.5142 60.3446C33.2015 60.8612 32.99 61.1052 32.9042 61.1662C32.8336 61.2176 32.8298 61.1757 32.8527 61.1071C32.8775 61.0385 33.0967 60.4742 33.2073 60.1044C33.3617 59.5936 33.4474 59.2371 33.4284 59.0217C33.415 58.8826 33.3883 58.8978 33.3559 58.9588C33.3235 59.0198 33.1558 59.3953 32.9766 59.7137C32.8508 59.9386 32.5725 60.3694 32.4467 60.4742C32.3361 60.5695 32.3666 60.4799 32.3819 60.4209C32.3933 60.377 32.4753 60.0511 32.624 59.5974C32.7193 59.3076 32.7631 59.0617 32.7993 58.8902C32.8203 58.7949 32.8699 58.4746 32.8031 58.5089C32.7765 58.5223 32.5077 59.0122 32.3666 59.2543C32.1474 59.6317 31.9396 59.9405 31.8501 60.0377C31.7719 60.1216 31.7166 60.154 31.73 60.0854C31.7433 60.0167 31.8901 59.5135 31.9987 59.1113C32.0731 58.8387 32.1589 58.4975 32.1703 58.3336C32.1798 58.1963 32.1798 58.1106 32.1455 58.1163C32.0921 58.1239 31.9377 58.507 31.709 58.9321C31.4822 59.3572 31.1695 59.8033 31.0418 59.9043C30.916 60.0053 31.0151 59.7041 31.1676 59.2142C31.2649 58.9016 31.3945 58.5128 31.4345 58.1944C31.4631 57.9733 31.4421 57.8837 31.4154 57.8913C31.3621 57.9085 31.2687 58.2097 30.916 58.873C30.5615 59.5383 30.2775 59.8967 30.2012 59.9805C30.1269 60.0644 30.0601 60.0663 30.0887 59.9862C30.1154 59.9062 30.3499 59.279 30.4871 58.8178C30.6187 58.366 30.7426 57.6988 30.6644 57.7617C30.5863 57.8246 30.428 58.2154 30.125 58.8483C29.8238 59.4792 29.4749 60.0644 29.311 60.1921C29.229 60.255 29.2367 60.2112 29.271 60.1025C29.3034 60.0015 29.4368 59.5497 29.6236 59.0084C29.8181 58.4556 29.9763 57.6683 29.9458 57.5711C29.9115 57.4701 29.5912 58.2535 29.2767 58.8597C28.9622 59.4659 28.4513 60.3351 28.3122 60.4552C28.173 60.5734 28.2988 60.3122 28.2988 60.3122C28.3312 60.1997 28.6172 59.5173 28.823 58.7263C29.0232 57.9581 29.1109 57.2413 29.067 57.1899C29.0461 57.1632 28.987 57.2661 28.9469 57.3767C28.743 57.9409 28.3122 58.9779 27.8985 59.809C27.7842 60.0377 27.5039 60.5047 27.2371 60.9355C27.2009 60.9946 27.1685 61.0518 27.1303 61.1052C26.5775 61.8867 26.1086 62.3099 25.7674 62.5043C26.3602 62.5024 26.9778 62.4319 27.7994 62.186C28.173 62.0754 28.5943 61.9248 28.8631 61.8086C29.2595 61.637 29.5493 61.4635 29.7647 61.313C29.7761 61.3034 29.7761 61.2958 29.7704 61.2882C29.7399 61.252 29.1013 61.5322 28.3846 61.7209C27.6698 61.9096 27.2409 61.9572 27.0255 61.9477C26.894 61.942 27.1932 61.8562 27.6717 61.6999C27.9805 61.5989 28.3636 61.4693 28.7544 61.3149C28.8859 61.2634 29.0175 61.2062 29.1471 61.149C29.5073 60.987 29.8447 60.8116 30.1135 60.6629C30.3518 60.5314 30.5386 60.4228 30.6434 60.3637C30.6968 60.3332 30.7292 60.316 30.7368 60.316C30.7502 60.316 30.855 60.356 31.0075 60.4647C31.3011 60.6725 31.77 61.1357 32.1169 62.0564C32.6449 63.4593 32.5153 64.4982 32.4772 64.7041C32.4467 64.868 32.4238 64.9137 32.4143 64.6316C32.4143 64.5573 32.4067 64.4658 32.3952 64.3419C32.3495 63.8425 32.2523 63.4631 32.0826 62.9084C31.9454 62.4605 31.6308 62.0125 31.6137 62.0468C31.5832 62.1078 31.8558 62.5215 31.972 63.3983C31.9987 63.6061 32.0197 63.8406 32.0216 64.1036C32.0292 64.8585 31.9911 65.3865 31.9301 65.9107C32.0426 65.8344 32.3914 65.5352 32.7383 65.2359C32.9919 65.0186 33.6876 64.1818 33.842 63.9511C34.1909 63.4326 34.4863 62.9103 34.7741 62.3423C35.1897 61.5531 35.6262 60.3484 35.6777 59.9748C35.7025 59.809 35.6853 59.7251 35.5042 60.0549" fill="#CD9300"/>
<path d="M47.9821 56.4426V55.7278H48.2128V55.5505H47.5532V55.7278H47.7839V56.4426H47.9821Z" fill="#CD9300"/>
<path d="M49.2592 56.4426V55.5505H49.061L48.8056 56.0271L48.5501 55.5505H48.35V56.4426H48.5501V55.9165L48.7179 56.2444H48.8932L49.061 55.9165V56.4426H49.2592Z" fill="#CD9300"/>
<path d="M37.7936 58.5985C37.9823 58.5985 38.4246 58.5833 38.6667 58.547C40.4947 58.2668 41.2743 57.3595 42.012 56.6866C42.3227 56.4026 42.8507 56.0423 43.9639 56.0938C44.8942 56.1338 47.5323 55.7011 48.7428 53.0191C49.5338 51.2673 48.9658 50.4705 49.4652 49.3859C49.7073 48.8636 50.4164 48.4614 51.0378 47.3749C51.8613 45.9376 52.1586 43.8275 50.8815 41.8755C50.2086 40.8481 49.6082 40.7128 49.3356 39.7997C49.0992 39.0067 49.4385 38.1928 48.8552 36.7574C48.1252 34.9751 47.0825 34.2908 45.7596 33.7342C45.0981 33.4559 44.0802 33.3911 43.4569 33.4044C42.4562 33.4235 41.7737 32.5962 41.4592 32.3046C40.4337 31.3553 39.1527 30.8845 37.8775 30.8768C36.6042 30.8845 35.3232 31.3553 34.2977 32.3046C33.9832 32.5962 33.3007 33.4235 32.3 33.4044C31.6767 33.3911 30.6588 33.454 29.9973 33.7342C28.6763 34.2908 27.6317 34.9751 26.9017 36.7574C26.3165 38.1928 26.6577 39.0048 26.4213 39.7997C26.1487 40.7128 25.5483 40.8481 24.8735 41.8755C23.5963 43.8275 23.8937 45.9395 24.7172 47.3749C25.3386 48.4595 26.0496 48.8636 26.2898 49.3859C26.7911 50.4686 26.2212 51.2673 27.0122 53.0191C28.2227 55.703 30.8608 56.1357 31.791 56.0938C32.9043 56.0442 33.4342 56.4045 33.7449 56.6866C34.4616 57.3404 35.2184 58.2173 36.9396 58.5223C37.2237 58.5718 37.6011 58.5985 37.7879 58.5985" fill="#AB2328"/>
<mask id="mask0_1851_489" style="mask-type:luminance" maskUnits="userSpaceOnUse" x="24" y="30" width="28" height="29">
<path d="M51.7284 30.8768H24.0067V58.5985H51.7284V30.8768Z" fill="white"/>
</mask>
<g mask="url(#mask0_1851_489)">
<path d="M37.6587 58.597C37.658 58.5922 37.658 58.5867 37.658 58.5811C37.7472 58.5811 37.8366 58.5811 37.9252 58.5804C37.9244 58.5859 37.9244 58.5914 37.9244 58.597H37.6587Z" fill="#E9C8C9"/>
<path d="M24.0255 44.4523C24.0232 44.4973 24.0398 44.5448 24.0082 44.5867V44.4538C24.0129 44.4413 24.0185 44.4405 24.0255 44.4523Z" fill="#C05B5E"/>
<path d="M24.0255 44.4523C24.02 44.4531 24.0137 44.4538 24.0082 44.4538V44.321C24.0145 44.3227 24.02 44.3227 24.0255 44.3202C24.0255 44.3644 24.0255 44.4089 24.0255 44.4523Z" fill="#D79799"/>
<path d="M24.0082 44.8894C24.0351 44.9338 24.0383 44.9781 24.0082 45.0223V44.8894Z" fill="#C05B5F"/>
<path d="M37.3227 41.1895C38.0493 41.1895 38.7758 41.191 39.5024 41.1887C39.6707 41.1887 39.8179 41.2362 39.9507 41.3372C40.1143 41.4605 40.2803 41.5816 40.4448 41.7042C40.5973 41.8172 40.6724 41.9682 40.6724 42.1588C40.6716 42.743 40.6709 43.328 40.6724 43.9123C40.6724 44.064 40.6196 44.1883 40.5064 44.2886C40.4267 44.3599 40.3499 44.4357 40.2693 44.5068C40.2313 44.54 40.2328 44.5621 40.2693 44.5962C40.3571 44.6776 40.4408 44.7638 40.5262 44.8476C40.6234 44.9431 40.6716 45.0579 40.6716 45.1955C40.6709 45.8335 40.6716 46.4715 40.6716 47.1103C40.6716 47.2897 40.6013 47.4353 40.4582 47.5428C40.2788 47.6772 40.0977 47.8091 39.9174 47.942C39.7933 48.0329 39.6518 48.0716 39.5001 48.0716C38.031 48.0716 36.5621 48.0716 35.0932 48.0716C34.9666 48.0716 34.9319 48.0344 34.9312 47.9073C34.9312 47.844 34.9287 47.7807 34.9279 47.7174C34.9264 47.6084 34.9565 47.5094 35.0331 47.4321C35.1738 47.2906 35.2158 47.1236 35.215 46.9252C35.2095 45.3616 35.211 43.7977 35.2125 42.2339C35.2125 42.1003 35.1809 41.98 35.0844 41.89C34.9035 41.7207 34.9184 41.505 34.9304 41.2899C34.9352 41.2093 34.9983 41.1887 35.0751 41.1887C35.5265 41.191 35.9786 41.1895 36.4302 41.1895H37.3211H37.3227Z" fill="#FEFEFE"/>
<path d="M24.458 44.8492C24.454 43.6214 24.866 42.5532 25.6913 41.6424C25.9247 41.3855 26.1595 41.1294 26.3753 40.8567C26.6646 40.4905 26.7847 40.0597 26.8718 39.6131C26.9532 39.1931 26.9666 38.7671 27.0038 38.3434C27.1359 36.8396 27.8125 35.6442 29.0468 34.7691C29.6997 34.3064 30.4263 34.0424 31.2225 33.9666C31.6684 33.9246 32.115 33.8819 32.5609 33.8392C33.0954 33.7887 33.5523 33.568 33.9516 33.2138C34.2583 32.941 34.5502 32.6526 34.8647 32.3884C35.5858 31.7836 36.4167 31.4445 37.3488 31.3496C38.1149 31.2714 38.8612 31.3465 39.5743 31.6555C39.731 31.7236 39.8842 31.7971 40.0234 31.8976C40.052 31.918 40.104 31.9378 40.0852 31.979C40.0693 32.0137 40.0226 31.9908 39.9902 31.983C39.7032 31.9094 39.4178 31.8295 39.1301 31.7615C38.0524 31.5053 37.0112 31.6279 36.0103 32.0905C35.5122 32.3206 35.094 32.6683 34.6931 33.0367C34.456 33.255 34.2394 33.4946 33.9895 33.6978C33.5927 34.0211 33.1262 34.1864 32.6337 34.2906C32.1213 34.3991 31.5996 34.4574 31.0849 34.5523C29.718 34.8038 28.7004 35.5437 28.026 36.7597C27.7106 37.3281 27.5382 37.9393 27.4591 38.5813C27.3999 39.0595 27.3634 39.5418 27.2308 40.0092C27.0726 40.5648 26.7556 41.0219 26.3713 41.4384C26.0392 41.7983 25.6969 42.1493 25.4376 42.5682C25.0059 43.2655 24.7996 44.0326 24.76 44.8459C24.7293 45.4817 24.8652 46.0935 25.0463 46.6976C25.0787 46.8059 25.104 46.9166 25.1309 47.0272C25.1372 47.0533 25.1515 47.0905 25.1174 47.1023C25.0953 47.1103 25.0747 47.0809 25.0589 47.0613C24.9624 46.9387 24.8936 46.7996 24.8296 46.6597C24.5924 46.1425 24.4746 45.5972 24.4596 45.0286C24.458 44.9685 24.4596 44.9085 24.4596 44.8492H24.458Z" fill="#FEFEFE"/>
<path d="M27.592 43.5842C27.6126 42.2497 27.9256 40.9444 28.5186 39.7118C29.812 37.023 31.9625 35.3857 34.8268 34.6631C36.1156 34.3381 37.42 34.3381 38.7221 34.6172C38.7806 34.6299 38.8368 34.6503 38.8929 34.6717C38.9253 34.6837 38.9649 34.7058 38.9577 34.743C38.9499 34.7864 38.9016 34.7769 38.8692 34.7746C38.7657 34.7666 38.662 34.7548 38.5585 34.7445C37.6209 34.6488 36.6927 34.7168 35.7724 34.9082C33.9011 35.2971 32.2748 36.1566 30.884 37.4673C29.3377 38.9251 28.3747 40.704 27.9573 42.7825C27.8458 43.3376 27.7992 43.9005 27.8 44.4674C27.8 44.5305 27.804 44.5938 27.7849 44.6555C27.7762 44.6839 27.7651 44.7133 27.732 44.714C27.6988 44.714 27.6853 44.6847 27.6759 44.6578C27.6483 44.5764 27.641 44.491 27.6332 44.4064C27.6063 44.1456 27.6008 43.8839 27.592 43.585V43.5842Z" fill="#FEFEFE"/>
<path d="M37.929 54.821C39.4486 54.8123 40.8946 54.4812 42.256 53.805C44.1622 52.8588 45.6429 51.4602 46.674 49.5935C46.9641 49.0685 47.1965 48.5167 47.3831 47.9468C47.3871 47.9349 47.3886 47.9222 47.3942 47.9111C47.4075 47.8842 47.413 47.8425 47.455 47.8526C47.4891 47.8614 47.4954 47.8978 47.4969 47.9302C47.5032 48.0598 47.4906 48.1886 47.4693 48.3167C47.3396 49.075 47.0533 49.7771 46.6771 50.4412C45.3157 52.8397 43.2798 54.323 40.5847 54.9024C39.9997 55.0282 39.4051 55.0803 38.8074 55.0788C38.3402 55.078 37.8737 55.0448 37.4136 54.9579C37.3512 54.9459 37.291 54.9293 37.2349 54.8986C37.2136 54.8866 37.1835 54.874 37.1882 54.8456C37.1938 54.81 37.2309 54.8092 37.2571 54.81C37.3613 54.8115 37.465 54.8188 37.5693 54.8203C37.6896 54.8226 37.8097 54.8203 37.929 54.8203V54.821Z" fill="#FEFEFE"/>
<path d="M31.5798 45.2983C31.575 45.4737 31.6076 45.7789 31.6391 46.0833C31.6446 46.1347 31.678 46.2161 31.6059 46.2287C31.5411 46.2405 31.5293 46.1569 31.5142 46.1046C31.4178 45.7703 31.3655 45.4272 31.3301 45.0816C31.2106 43.9337 31.402 42.833 31.8905 41.7919C32.7334 39.9987 34.128 38.8453 36.0372 38.3369C37.5488 37.9345 39.0265 38.0729 40.452 38.7244C40.4861 38.7403 40.5192 38.7584 40.5509 38.779C40.5738 38.794 40.6054 38.8144 40.5936 38.8453C40.5793 38.8817 40.5398 38.8706 40.5105 38.8666C40.4861 38.8636 40.4615 38.8548 40.4379 38.8468C39.6235 38.5702 38.7861 38.4351 37.9261 38.454C36.2603 38.4911 34.8182 39.0778 33.6156 40.2343C32.7508 41.0662 32.1482 42.0591 31.8329 43.2188C31.6597 43.8553 31.5853 44.5069 31.5798 45.2974V45.2983Z" fill="#FEFEFE"/>
<path d="M44.1961 44.2697C44.1914 43.9826 44.1708 43.6957 44.1504 43.4094C44.1456 43.3414 44.11 43.2331 44.1906 43.219C44.2547 43.208 44.261 43.3225 44.2783 43.3873C44.4491 44.0032 44.4689 44.6324 44.4358 45.2649C44.3898 46.1307 44.2032 46.9649 43.8183 47.7443C42.8893 49.6236 41.4116 50.8277 39.3499 51.249C37.7496 51.5763 36.2197 51.299 34.7706 50.558C34.6978 50.5208 34.629 50.4751 34.5627 50.4284C34.5335 50.4078 34.4946 50.3724 34.5215 50.3344C34.5438 50.3028 34.5855 50.3279 34.6164 50.3422C34.9105 50.4806 35.211 50.6024 35.5201 50.7019C36.1936 50.9187 36.8831 51.038 37.5924 51.0553C40.5555 51.1289 42.9493 49.1065 43.7692 46.7466C44.0198 46.0247 44.1653 45.28 44.1906 44.5146C44.1921 44.4737 44.1954 44.4325 44.1969 44.3923C44.1977 44.3511 44.1969 44.3099 44.1969 44.2689L44.1961 44.2697Z" fill="#FEFEFE"/>
<path d="M39.8985 37.5306C39.8131 37.499 39.7151 37.4658 39.6202 37.4246C39.5878 37.4105 39.5965 37.3724 39.6083 37.34C39.7616 36.9069 39.9151 36.4736 40.0668 36.0403C40.0866 35.9833 40.1198 35.966 40.1752 35.9841C40.1815 35.9858 40.1863 35.9906 40.1926 35.9913C40.3966 36.022 40.5041 36.1273 40.4993 36.3463C40.497 36.4616 40.5262 36.5779 40.5428 36.6926C40.5483 36.7281 40.5397 36.7771 40.5807 36.7914C40.6179 36.804 40.6392 36.7613 40.663 36.7384C40.7919 36.6175 40.9208 36.4965 41.0471 36.3732C41.0946 36.3265 41.1405 36.3068 41.2069 36.336C41.2702 36.3644 41.3373 36.381 41.403 36.404C41.4575 36.4229 41.4741 36.4546 41.4535 36.5131C41.3003 36.9431 41.1476 37.3733 40.9974 37.8041C40.9745 37.8697 40.9396 37.8888 40.8763 37.8619C40.8417 37.8468 40.8052 37.8358 40.7698 37.824C40.6537 37.7849 40.6165 37.7069 40.6583 37.5899C40.7017 37.4681 40.7452 37.3472 40.7871 37.2246C40.795 37.2025 40.8108 37.1757 40.7791 37.1581C40.7547 37.1448 40.7381 37.1637 40.7216 37.1779C40.6827 37.2104 40.6447 37.2435 40.606 37.2759C40.4629 37.3977 40.2858 37.3369 40.2519 37.1543C40.2439 37.1139 40.2393 37.0729 40.2273 37.034C40.2187 37.0064 40.2305 36.9614 40.1878 36.9574C40.1451 36.9534 40.1451 36.9969 40.1348 37.0247C40.0834 37.1669 40.0336 37.3093 39.9831 37.4515C39.9703 37.4871 39.96 37.5258 39.8977 37.5291L39.8985 37.5306Z" fill="#FEFEFE"/>
<path d="M42.8696 50.4078C43.0396 50.4482 43.2089 50.4877 43.3772 50.5281C43.4389 50.5422 43.499 50.5597 43.5606 50.5723C43.5899 50.5786 43.6271 50.6007 43.6477 50.5676C43.6705 50.5319 43.6311 50.5123 43.6105 50.4909C43.4965 50.3724 43.3844 50.2521 43.2666 50.1383C43.2072 50.0805 43.2041 50.0363 43.2697 49.9841C43.3164 49.9469 43.3598 49.905 43.401 49.8615C43.4508 49.8085 43.4919 49.8095 43.5432 49.8615C43.771 50.0979 44.0018 50.3319 44.2312 50.5668C44.3211 50.6592 44.4098 50.7542 44.5022 50.8451C44.5497 50.8918 44.5489 50.9305 44.4992 50.9715C44.4967 50.974 44.4944 50.9755 44.4919 50.978C44.3796 51.087 44.246 51.1236 44.0911 51.0878C43.922 51.0483 43.7535 51.0079 43.5851 50.9677C43.556 50.9604 43.5203 50.9383 43.5005 50.9747C43.4816 51.0111 43.5219 51.03 43.5417 51.0506C43.6555 51.1691 43.7678 51.2887 43.8856 51.4032C43.9401 51.457 43.9488 51.4989 43.8856 51.5502C43.8389 51.5883 43.7954 51.6301 43.7552 51.6737C43.7037 51.7298 43.661 51.733 43.6057 51.676C43.291 51.3518 42.9748 51.03 42.6578 50.7082C42.6048 50.6545 42.597 50.6102 42.6618 50.5605C42.7035 50.5281 42.7399 50.4877 42.7779 50.4497C42.804 50.4244 42.8333 50.4078 42.868 50.4078H42.8696Z" fill="#FEFEFE"/>
<path d="M32.6005 50.1953C32.5601 50.4189 32.5199 50.6419 32.4802 50.8657C32.4747 50.8949 32.4518 50.9313 32.4905 50.9511C32.5294 50.9707 32.545 50.928 32.5649 50.9076C32.6787 50.7889 32.7926 50.6711 32.9009 50.547C32.9602 50.4791 33.0061 50.4822 33.0637 50.5447C33.1026 50.5866 33.1443 50.6253 33.1895 50.6593C33.2551 50.7082 33.2473 50.7509 33.195 50.8064C32.9373 51.0792 32.6811 51.3543 32.4242 51.6286C32.372 51.6838 32.3159 51.7353 32.2692 51.7946C32.217 51.8594 32.1728 51.8508 32.1213 51.7978C32.0866 51.7614 32.0487 51.7275 32.01 51.6949C31.9663 51.6594 31.953 51.6198 31.964 51.5622C32.006 51.3487 32.0439 51.1345 32.0811 50.9202C32.0866 50.8901 32.1119 50.8459 32.0692 50.8268C32.0288 50.8087 32.0107 50.8529 31.9877 50.8775C31.8756 50.9968 31.7624 51.1171 31.6526 51.2387C31.6036 51.2925 31.5609 51.2965 31.5094 51.2435C31.4699 51.2033 31.4288 51.1621 31.383 51.1289C31.3062 51.0737 31.3134 51.0245 31.3743 50.9604C31.64 50.6814 31.9025 50.3993 32.1657 50.1185C32.2107 50.0702 32.2566 50.022 32.3009 49.9723C32.3403 49.928 32.3792 49.9248 32.4227 49.9652C32.4684 50.0087 32.5151 50.0514 32.5626 50.0933C32.5933 50.121 32.606 50.1541 32.5997 50.1943L32.6005 50.1953Z" fill="#FEFEFE"/>
<path d="M35.204 36.1146C35.5225 36.1169 35.7209 36.4063 35.6104 36.6823C35.5905 36.7313 35.5913 36.7557 35.6443 36.774C35.8126 36.8325 35.8759 36.9684 35.8957 37.1304C35.9171 37.3045 35.8443 37.4371 35.7003 37.5321C35.6016 37.5976 35.487 37.6245 35.3786 37.6649C35.2545 37.7116 35.1296 37.7526 35.0055 37.8001C34.9455 37.823 34.9121 37.8071 34.89 37.7463C34.7335 37.3178 34.5753 36.8893 34.4165 36.4616C34.3992 36.415 34.3937 36.3739 34.4512 36.3541C34.6773 36.2759 34.8963 36.1777 35.1304 36.1224C35.1605 36.1154 35.1929 36.1146 35.204 36.1129V36.1146Z" fill="#FEFEFE"/>
<path d="M36.6998 52.1844C36.9148 52.2065 37.1045 52.2191 37.2911 52.2459C37.5086 52.2768 37.6596 52.4255 37.7038 52.6342C37.7457 52.8334 37.6731 53.0035 37.4865 53.1251C37.4335 53.16 37.435 53.1956 37.4556 53.2438C37.5189 53.3948 37.5812 53.5458 37.6422 53.6983C37.6824 53.7995 37.6643 53.8248 37.5568 53.8185C37.5189 53.8161 37.481 53.8035 37.4438 53.8075C37.2793 53.8271 37.2089 53.7417 37.171 53.594C37.1426 53.4817 37.0904 53.3757 37.0524 53.2659C37.0349 53.2145 37.009 53.1836 36.9512 53.1891C36.8927 53.1946 36.895 53.2406 36.8912 53.28C36.8792 53.4026 36.8673 53.5252 36.8588 53.6477C36.854 53.7221 36.8239 53.7568 36.7448 53.7442C36.6824 53.7339 36.6192 53.7269 36.5566 53.7261C36.4808 53.7251 36.4587 53.6912 36.4657 53.6184C36.5014 53.2707 36.5338 52.9219 36.5669 52.5732C36.5757 52.4823 36.5923 52.3914 36.593 52.3005C36.593 52.2025 36.6325 52.1661 36.6998 52.1844Z" fill="#FEFEFE"/>
<path d="M39.4947 53.1567C39.4947 53.4991 39.3025 53.6992 38.9687 53.7402C38.8155 53.7593 38.6613 53.7743 38.5088 53.7972C38.428 53.809 38.3933 53.7821 38.3837 53.7015C38.3317 53.2564 38.2778 52.8121 38.2225 52.3678C38.2169 52.3195 38.2139 52.2721 38.2739 52.2665C38.5023 52.2452 38.7286 52.1867 38.9602 52.2057C39.1958 52.2256 39.3689 52.3748 39.4203 52.6026C39.4645 52.7963 39.4764 52.9955 39.4937 53.1567H39.4947Z" fill="#FEFEFE"/>
<path d="M33.6986 52.7227C33.5911 52.7275 33.4929 52.6951 33.4005 52.6445C33.2543 52.5639 33.1111 52.4777 32.9641 52.3994C32.8928 52.3615 32.8898 52.3228 32.9293 52.2562C33.157 51.8714 33.3816 51.4856 33.6052 51.098C33.6431 51.0325 33.6812 51.0167 33.7491 51.0571C33.8923 51.1423 34.0402 51.2199 34.1831 51.306C34.4742 51.4808 34.5539 51.7622 34.3943 52.0595C34.3168 52.2034 34.2331 52.3449 34.1429 52.4808C34.0306 52.6493 33.8852 52.7227 33.6986 52.7219V52.7227Z" fill="#FEFEFE"/>
<path d="M30.7812 42.263C30.7591 42.3359 30.7355 42.4236 30.7054 42.5097C30.6855 42.5652 30.6383 42.5446 30.6003 42.5343C30.4667 42.4979 30.3321 42.4615 30.2002 42.4205C30.1362 42.4007 30.1061 42.4188 30.0902 42.4813C30.0714 42.5549 30.05 42.6267 30.0262 42.6988C30.0066 42.7581 30.0302 42.7872 30.0864 42.8031C30.22 42.8402 30.3527 42.8807 30.4863 42.9153C30.5567 42.9335 30.582 42.9643 30.5544 43.0372C30.5298 43.102 30.5125 43.1691 30.4951 43.2363C30.4808 43.2916 30.4461 43.3059 30.3954 43.2916C29.944 43.1628 29.4926 43.0324 29.0413 42.9043C28.9803 42.8869 28.97 42.8521 28.9883 42.7968C29.0071 42.7398 29.027 42.683 29.038 42.6245C29.0554 42.5303 29.1076 42.5192 29.189 42.5446C29.3211 42.5856 29.4562 42.6182 29.5883 42.6609C29.6507 42.6805 29.6775 42.6569 29.6926 42.6031C29.714 42.5303 29.7305 42.456 29.7559 42.3856C29.7805 42.3193 29.7519 42.2924 29.6934 42.2766C29.5567 42.2386 29.4215 42.1975 29.2839 42.1618C29.2088 42.143 29.185 42.1066 29.2128 42.0322C29.2349 41.9737 29.249 41.9121 29.2649 41.8504C29.2807 41.7903 29.3138 41.7667 29.3764 41.7848C29.8247 41.9136 30.2729 42.0417 30.7212 42.1691C30.7624 42.1809 30.79 42.1998 30.7805 42.2638L30.7812 42.263Z" fill="#FEFEFE"/>
<path d="M29.8523 55.1277C29.7171 55.1064 29.5843 55.0566 29.4539 55.0006C28.8056 54.719 28.3146 54.2558 27.9137 53.6826C27.6093 53.2469 27.3998 52.7734 27.2963 52.2524C27.2742 52.1409 27.2551 52.0279 27.2883 51.9148C27.2955 51.891 27.2993 51.8601 27.3272 51.8546C27.3571 51.8483 27.3706 51.8784 27.3809 51.899C27.407 51.9488 27.4314 52.0002 27.4535 52.0523C27.7667 52.7963 28.1666 53.4865 28.7202 54.0803C29.038 54.4219 29.404 54.7065 29.7898 54.9665C29.8294 54.9926 29.8721 55.0147 29.8998 55.0543C29.91 55.0692 29.9234 55.0858 29.9148 55.1064C29.9038 55.134 29.8792 55.1262 29.8515 55.1277H29.8523Z" fill="#FEFEFE"/>
<path d="M30.2018 44.8436C30.0113 44.8253 30.0104 44.8253 30.0207 44.6427C30.0279 44.5171 30.0335 44.3905 30.0485 44.2657C30.0571 44.1921 30.0342 44.1612 29.9614 44.1542C29.8041 44.1384 29.7978 44.1424 29.7883 44.3021C29.782 44.4088 29.7733 44.5156 29.7677 44.6231C29.7647 44.691 29.7313 44.7178 29.6642 44.7108C29.3985 44.6816 29.4002 44.7527 29.4279 44.4578C29.4349 44.3795 29.4389 44.3004 29.4467 44.2222C29.454 44.1519 29.4309 44.1187 29.3543 44.1147C29.178 44.1052 29.178 44.1019 29.1677 44.28C29.1598 44.4119 29.1488 44.544 29.144 44.6769C29.1415 44.7457 29.1116 44.7741 29.0436 44.7678C28.9843 44.7623 28.9242 44.7598 28.864 44.7558C28.8087 44.7527 28.7866 44.7226 28.7906 44.6681C28.812 44.3755 28.8326 44.0831 28.8529 43.7905C28.8577 43.7241 28.8838 43.6988 28.9559 43.7043C29.4088 43.7367 29.8619 43.7661 30.3148 43.7937C30.3939 43.7985 30.4271 43.8254 30.42 43.909C30.3972 44.1984 30.3781 44.4878 30.36 44.7771C30.3567 44.8286 30.3339 44.8522 30.2832 44.8507C30.2515 44.8492 30.2201 44.8467 30.2018 44.8452V44.8436Z" fill="#FEFEFE"/>
<path d="M37.2516 35.7075C37.284 35.7019 37.3109 35.7271 37.3179 35.7871C37.3543 36.1043 37.3717 36.03 37.0966 36.0719C36.9844 36.0893 36.8713 36.1003 36.7583 36.1114C36.6982 36.1177 36.6729 36.1446 36.6847 36.2056C36.6887 36.2269 36.691 36.249 36.6918 36.2711C36.6942 36.3415 36.7226 36.3723 36.7985 36.3621C36.9298 36.343 37.0617 36.3344 37.1931 36.3161C37.2594 36.3066 37.288 36.3335 37.2928 36.3952C37.3141 36.668 37.3805 36.6386 37.0959 36.6735C37.0112 36.6838 36.9266 36.6934 36.842 36.7012C36.7772 36.7067 36.7455 36.7313 36.7558 36.8047C36.7804 36.9827 36.7781 36.981 36.9607 36.9558C37.0951 36.9368 37.2303 36.9257 37.3646 36.9076C37.4294 36.8988 37.4603 36.9234 37.4651 36.9865C37.4666 37.0023 37.4674 37.0182 37.4689 37.034C37.4887 37.2387 37.4895 37.2404 37.288 37.2648C37.0311 37.2965 36.7741 37.3241 36.5171 37.3558C36.4561 37.3638 36.4302 37.3416 36.423 37.2824C36.3685 36.8316 36.3124 36.3809 36.2562 35.9303C36.2484 35.8687 36.2562 35.8268 36.3313 35.818C36.6294 35.7841 36.9266 35.7477 37.2508 35.709L37.2516 35.7075Z" fill="#FEFEFE"/>
<path d="M46.418 47.8099C46.4132 47.8234 46.406 47.8448 46.3974 47.8644C46.2907 48.1238 46.1816 48.3815 46.0779 48.6417C46.0495 48.7136 46.0156 48.7302 45.942 48.7001C45.5223 48.5285 45.1016 48.3594 44.6794 48.1934C44.5987 48.1618 44.5917 48.1223 44.6225 48.0495C44.7308 47.795 44.8376 47.5388 44.9395 47.2811C44.9719 47.1988 45.0139 47.1869 45.0913 47.2186C45.3379 47.3198 45.3166 47.2786 45.2209 47.5182C45.179 47.6233 45.138 47.7292 45.0898 47.832C45.0549 47.9056 45.0739 47.9452 45.1498 47.9641C45.1679 47.9688 45.1854 47.9767 45.202 47.9854C45.2628 48.0163 45.2992 48.002 45.3246 47.9349C45.3688 47.8171 45.4233 47.7031 45.4676 47.5853C45.4929 47.5182 45.5261 47.4961 45.5949 47.526C45.8644 47.6416 45.8423 47.5798 45.7356 47.8488C45.7064 47.9214 45.6763 47.9942 45.6446 48.0668C45.6202 48.1238 45.6288 48.164 45.6929 48.1846C45.7112 48.1902 45.7293 48.1965 45.7451 48.206C45.8257 48.2494 45.8747 48.2346 45.9081 48.1412C45.9571 48.002 46.0211 47.8676 46.0741 47.73C46.101 47.6597 46.138 47.6345 46.21 47.67C46.2605 47.6953 46.3143 47.7134 46.3673 47.7332C46.4004 47.7458 46.421 47.7649 46.4163 47.8106L46.418 47.8099Z" fill="#FEFEFE"/>
<path d="M31.5886 48.9872C31.6368 48.9784 31.6574 48.9959 31.6772 49.0188C31.8265 49.1864 31.8274 49.2014 31.6961 49.384C31.4424 49.7374 31.1885 50.0908 30.9347 50.4443C30.8612 50.547 30.8383 50.5462 30.7647 50.441C30.7521 50.4229 30.7386 50.4056 30.7268 50.3873C30.6193 50.2285 30.5909 50.2443 30.726 50.0941C30.7599 50.0562 30.7561 50.0245 30.7275 49.9856C30.662 49.8972 30.5972 49.807 30.5371 49.7146C30.5047 49.6648 30.4691 49.6616 30.4168 49.6774C30.235 49.7334 30.2659 49.7327 30.1664 49.5928C30.0724 49.4595 30.1038 49.3724 30.2603 49.3318C30.6904 49.2205 31.1196 49.1097 31.5499 48.9982C31.568 48.9935 31.5863 48.9887 31.5886 48.9879V48.9872Z" fill="#FEFEFE"/>
<path d="M39.0793 37.3258C39.054 37.3241 39.0288 37.3226 39.0035 37.3203C38.8518 37.3052 38.8477 37.306 38.8184 37.1566C38.8058 37.0902 38.7742 37.0656 38.7126 37.0626C38.6121 37.0571 38.5109 37.0506 38.4105 37.0388C38.3409 37.0302 38.3093 37.0578 38.2841 37.1194C38.2279 37.2586 38.2256 37.2578 38.0769 37.2404C38.0357 37.2357 37.9955 37.2332 37.9543 37.2301C37.8476 37.2221 37.8295 37.1953 37.8744 37.0998C38.0264 36.7778 38.1789 36.456 38.3314 36.1343C38.3836 36.0237 38.4391 35.913 38.4881 35.8007C38.5117 35.7454 38.5466 35.7288 38.6051 35.7319C38.8193 35.7422 38.8201 35.7407 38.8786 35.9524C38.9892 36.3565 39.0999 36.7605 39.2097 37.1653C39.2549 37.3306 39.2509 37.3352 39.0786 37.3266L39.0793 37.3258Z" fill="#FEFEFE"/>
<path d="M35.7653 52.7709C35.7754 53.0042 35.7857 53.2366 35.7968 53.4699C35.8016 53.5671 35.7732 53.5917 35.6807 53.5656C35.6538 53.5576 35.627 53.5473 35.6001 53.5395C35.4253 53.4833 35.423 53.4833 35.4135 53.3047C35.4102 53.2484 35.3818 53.228 35.3359 53.2145C35.2394 53.1853 35.1422 53.1585 35.0482 53.1228C34.9849 53.0992 34.9462 53.1102 34.9051 53.1663C34.8134 53.2936 34.8101 53.2921 34.6599 53.2438C34.6245 53.2318 34.5881 53.2208 34.5524 53.209C34.452 53.1758 34.4426 53.1464 34.5082 53.062C34.7501 52.7543 34.992 52.4476 35.2339 52.1402C35.2909 52.0681 35.3494 51.9978 35.4032 51.9242C35.4348 51.8815 35.4703 51.8722 35.5177 51.8887C35.7794 51.9787 35.736 51.9139 35.743 52.1756C35.7486 52.3741 35.744 52.5725 35.744 52.7709C35.751 52.7709 35.7581 52.7709 35.7653 52.7709Z" fill="#FEFEFE"/>
<path d="M30.0049 46.7174C30.0067 46.7426 30.009 46.7679 30.009 46.7925C30.0137 47.0289 29.9323 47.164 29.7449 47.2344C29.5149 47.3213 29.3101 47.2819 29.1725 47.1015C28.9867 46.8573 28.9449 46.5798 29.0357 46.2872C29.0698 46.1782 29.1045 46.1711 29.1994 46.2304C29.2152 46.2407 29.231 46.2518 29.2484 46.2596C29.3496 46.3047 29.3931 46.3663 29.3559 46.4874C29.3235 46.5941 29.3504 46.7064 29.3963 46.8099C29.4255 46.877 29.4754 46.9166 29.5536 46.896C29.6287 46.877 29.6477 46.8225 29.643 46.7514C29.6367 46.6637 29.6319 46.575 29.6302 46.4874C29.6279 46.3086 29.6912 46.1639 29.865 46.092C30.0516 46.0144 30.2358 46.0154 30.3988 46.1521C30.6027 46.3244 30.6826 46.7212 30.5711 46.9633C30.5394 47.0327 30.5007 47.0455 30.4399 47.0003C30.4201 46.9854 30.3988 46.9711 30.3759 46.9608C30.2785 46.9166 30.2312 46.8604 30.2722 46.7418C30.3016 46.6581 30.2707 46.5672 30.228 46.4874C30.1971 46.4296 30.1458 46.398 30.0785 46.4153C30.013 46.4326 29.9947 46.4866 29.9964 46.5482C29.9979 46.6052 30.0019 46.6612 30.0049 46.7182C30.0049 46.7182 30.0049 46.7182 30.0059 46.7182L30.0049 46.7174Z" fill="#FEFEFE"/>
<path d="M41.2307 53.1401C40.9396 53.1401 40.9286 53.1195 41.0037 52.9045C41.0346 52.8168 41.0717 52.7812 41.1722 52.7892C41.2931 52.7987 41.4078 52.7505 41.5081 52.6792C41.5618 52.6405 41.6 52.5908 41.5643 52.518C41.5294 52.4461 41.4749 52.4278 41.3998 52.4509C41.3152 52.477 41.2307 52.5014 41.1446 52.5212C40.9414 52.5687 40.7816 52.5101 40.6789 52.3552C40.5594 52.1741 40.5491 51.9614 40.6734 51.8064C40.859 51.5748 41.1112 51.4871 41.4038 51.5132C41.4789 51.5195 41.5121 51.559 41.4764 51.6365C41.4663 51.6594 41.456 51.683 41.4505 51.7076C41.4267 51.8056 41.3865 51.8666 41.2639 51.8516C41.1737 51.8405 41.0851 51.888 41.014 51.948C40.9682 51.9867 40.9389 52.0365 40.9698 52.0982C41.0014 52.1623 41.0559 52.1756 41.1215 52.1575C41.2069 52.1337 41.2915 52.1085 41.3769 52.0879C41.6015 52.0326 41.7667 52.0975 41.8725 52.2801C41.9951 52.4903 41.9785 52.7006 41.8205 52.8628C41.6425 53.0462 41.4181 53.126 41.2298 53.1401H41.2307Z" fill="#FEFEFE"/>
<path d="M46.1238 41.0805C46.1278 41.237 46.0527 41.3515 45.9309 41.4394C45.8819 41.4749 45.8385 41.4749 45.8084 41.4108C45.7885 41.3681 45.7679 41.3247 45.7428 41.286C45.7008 41.2212 45.685 41.1666 45.7531 41.1041C45.7981 41.0629 45.7862 41.0054 45.7546 40.9562C45.7222 40.9064 45.6755 40.8843 45.617 40.8986C45.5426 40.9167 45.4755 40.9507 45.4155 40.9981C45.3736 41.0313 45.345 41.0732 45.3608 41.1295C45.3766 41.187 45.4115 41.2297 45.4731 41.2465C45.5419 41.2646 45.678 41.444 45.6747 41.5128C45.6732 41.5444 45.6501 41.561 45.6233 41.5753C45.3957 41.6907 45.1688 41.8069 44.9418 41.9232C44.8928 41.9486 44.8589 41.9358 44.8335 41.8868C44.7125 41.6552 44.5916 41.4236 44.4691 41.1926C44.4407 41.1388 44.4525 41.1049 44.5062 41.0788C44.7655 40.9524 44.7102 40.9404 44.8295 41.1666C44.8762 41.2559 44.9237 41.3445 44.9704 41.4337C44.986 41.4646 45.0003 41.5065 45.043 41.4939C45.0937 41.4796 45.1465 41.4615 45.1807 41.4171C45.198 41.3935 45.1696 41.3784 45.1553 41.3634C44.9332 41.1081 44.9774 40.8306 45.2683 40.659C45.3886 40.5887 45.5127 40.5214 45.6581 40.5387C45.9294 40.5713 46.1238 40.8005 46.1246 41.0812L46.1238 41.0805Z" fill="#FEFEFE"/>
<path d="M44.5576 48.7002C44.6177 48.6947 44.6825 48.7096 44.7457 48.7309C44.7995 48.7485 44.8136 48.7864 44.7829 48.8339C44.7362 48.905 44.6865 48.9745 44.639 49.0449C44.6159 49.0788 44.5845 49.0813 44.5473 49.075C44.4476 49.0584 44.3843 49.1082 44.3433 49.1928C44.3022 49.2757 44.3291 49.3478 44.3931 49.4053C44.533 49.5294 44.6888 49.6306 44.8563 49.7137C44.9425 49.7564 45.0216 49.7492 45.0881 49.6766C45.152 49.6062 45.1687 49.5287 45.1125 49.4442C45.0911 49.4116 45.0896 49.3817 45.1125 49.3485C45.1584 49.2845 45.2019 49.2187 45.2461 49.1531C45.2888 49.0899 45.3323 49.0994 45.375 49.1516C45.4571 49.2521 45.5094 49.3651 45.5094 49.497C45.5109 49.8813 45.0982 50.2807 44.6445 50.045C44.476 49.9572 44.318 49.8537 44.1708 49.7336C43.9724 49.5714 43.9101 49.343 43.993 49.1129C44.0832 48.8645 44.3037 48.7018 44.5567 48.7018L44.5576 48.7002Z" fill="#FEFEFE"/>
<path d="M45.0683 42.7161C45.0683 42.3871 45.277 42.1857 45.5759 42.1817C45.7789 42.1784 45.9758 42.2339 46.175 42.2608C46.2842 42.2756 46.3925 42.2979 46.5025 42.3138C46.5656 42.3223 46.6067 42.3469 46.6193 42.414C46.6304 42.4695 46.6502 42.5232 46.666 42.5778C46.6944 42.6782 46.67 42.7051 46.5656 42.6868C46.4257 42.6624 46.2858 42.6386 46.1466 42.6102C46.0715 42.5943 46.0509 42.6054 46.0683 42.6883C46.0991 42.833 46.0564 42.9628 45.9482 43.0678C45.802 43.2095 45.5528 43.2625 45.3765 43.1809C45.16 43.0806 45.0808 42.8932 45.0675 42.7169L45.0683 42.7161Z" fill="#FEFEFE"/>
<path d="M45.3172 43.8412C45.3149 43.8191 45.3134 43.797 45.3094 43.7756C45.2911 43.691 45.3252 43.6671 45.4106 43.6506C45.6153 43.6111 45.7956 43.687 45.9821 43.7407C46.2604 43.8214 46.5371 43.9075 46.8154 43.9874C46.8835 44.0072 46.9182 44.0371 46.9151 44.1115C46.9134 44.1645 46.9252 44.2182 46.9285 44.2712C46.9355 44.3835 46.9119 44.4026 46.8051 44.3709C46.5032 44.2815 46.2011 44.1914 45.8999 44.1012C45.8454 44.0854 45.7916 44.0688 45.7371 44.0537C45.6896 44.0404 45.662 44.0537 45.6691 44.1084C45.6713 44.1305 45.6738 44.1527 45.6761 44.174C45.6896 44.34 45.6896 44.3416 45.8501 44.3385C45.9142 44.3368 45.9426 44.3599 45.9449 44.4247C45.9544 44.7171 46.0169 44.661 45.715 44.6957C45.6399 44.7045 45.5638 44.706 45.4887 44.7148C45.4184 44.7226 45.3837 44.699 45.3782 44.6239C45.3599 44.3629 45.3378 44.102 45.3164 43.8412C45.3164 43.8412 45.3172 43.8412 45.3179 43.8412H45.3172Z" fill="#FEFEFE"/>
<path d="M31.4336 40.8803C31.4248 40.8976 31.4155 40.9207 31.4027 40.9428C31.247 41.2131 31.089 41.4819 30.9363 41.7539C30.8953 41.8275 30.8541 41.8322 30.7846 41.7918C30.5522 41.6552 30.5655 41.7017 30.6969 41.4693C30.7438 41.386 30.7245 41.3206 30.6391 41.2732C30.3616 41.1182 30.084 40.9609 29.805 40.8092C29.7291 40.768 29.7165 40.7261 29.7615 40.6527C29.9283 40.3807 29.8547 40.394 30.1283 40.545C30.3742 40.6803 30.6201 40.8147 30.8619 40.9554C30.9363 40.9989 30.9805 40.9941 31.0177 40.9135C31.0438 40.8567 31.081 40.8044 31.1111 40.7492C31.1372 40.7 31.1711 40.6889 31.2194 40.7175C31.2739 40.7492 31.3284 40.7798 31.3839 40.81C31.4107 40.8243 31.4296 40.8424 31.4336 40.8803Z" fill="#FEFEFE"/>
<path d="M30.6225 47.8053C30.5916 47.7357 30.564 47.6614 30.5276 47.5918C30.4919 47.5222 30.507 47.4826 30.5798 47.4534C30.8423 47.3467 30.7876 47.3221 30.9054 47.579C31.0161 47.8194 31.1196 48.0623 31.2304 48.3024C31.2653 48.3775 31.2485 48.4164 31.1726 48.4471C30.9118 48.5548 30.9656 48.5626 30.8571 48.3293C30.7948 48.1949 30.7963 48.1942 30.6579 48.2552C30.3663 48.3823 30.0745 48.5073 29.7843 48.6377C29.7077 48.6726 29.661 48.6679 29.6326 48.5817C29.6153 48.5279 29.5899 48.4765 29.563 48.4267C29.5226 48.3524 29.5472 48.3144 29.6215 48.2836C29.9315 48.1522 30.2405 48.0171 30.5489 47.8827C30.5821 47.8684 30.624 47.8598 30.6215 47.8061L30.6225 47.8053Z" fill="#FEFEFE"/>
<path d="M46.7095 45.7987C46.4447 45.7758 46.1498 45.7489 45.8549 45.7243C45.8225 45.722 45.7789 45.7015 45.7585 45.7362C45.7347 45.7773 45.7806 45.8034 45.8002 45.8336C45.8256 45.873 45.858 45.9087 45.8833 45.9489C45.9197 46.0082 45.8992 46.0486 45.8311 46.0486C45.6841 46.0486 45.5377 46.0438 45.4659 45.8785C45.4563 45.8557 45.4398 45.8343 45.4209 45.8177C45.2745 45.6912 45.333 45.5291 45.3458 45.3757C45.3506 45.3141 45.4043 45.3204 45.4485 45.3244C45.6937 45.3458 45.9386 45.3671 46.1837 45.3885C46.3877 45.4066 46.5924 45.4239 46.7964 45.443C46.9087 45.4533 46.9182 45.4659 46.9049 45.5797C46.9016 45.6082 46.8976 45.6359 46.8961 45.6643C46.8887 45.7607 46.8271 45.8055 46.711 45.7987H46.7095Z" fill="#FEFEFE"/>
<path d="M43.0152 52.1844C43.0119 52.197 43.0127 52.2088 43.0071 52.2143C42.9265 52.2904 42.8348 52.3512 42.7336 52.3946C42.7044 52.4072 42.6839 52.3733 42.668 52.3497C42.4086 51.9694 42.1501 51.5874 41.8901 51.2071C41.8529 51.1533 41.8632 51.1154 41.917 51.0822C41.9786 51.0443 42.0396 51.0041 42.0996 50.9637C42.1446 50.9328 42.1802 50.9376 42.2111 50.9843C42.4704 51.3685 42.7313 51.7519 42.9906 52.1362C43.0009 52.1512 43.0071 52.1693 43.0142 52.1844H43.0152Z" fill="#FEFEFE"/>
<path d="M43.3882 38.216C43.5929 38.216 43.7479 38.3693 43.7479 38.5725C43.7479 38.7717 43.5866 38.9284 43.3834 38.9267C43.1858 38.9244 43.0277 38.7679 43.027 38.5733C43.027 38.3733 43.1842 38.2168 43.3874 38.2168L43.3882 38.216Z" fill="#FEFEFE"/>
<path d="M32.2321 38.2128C32.4345 38.2128 32.5973 38.3741 32.5943 38.571C32.591 38.7654 32.4297 38.9204 32.2313 38.9204C32.0314 38.9204 31.8747 38.7671 31.8739 38.5702C31.8731 38.3733 32.0258 38.2128 32.2328 38.2128H32.2321Z" fill="#FEFEFE"/>
<path d="M37.8295 46.994C37.4666 46.994 37.1029 46.994 36.7399 46.994C36.6008 46.994 36.5503 46.9458 36.5503 46.8074C36.5495 46.296 36.5503 45.7844 36.5503 45.2729C36.5503 45.1378 36.604 45.0833 36.7409 45.0833C37.4643 45.0833 38.1867 45.0833 38.9101 45.0833C38.9995 45.0833 39.0739 45.1149 39.145 45.1687C39.4431 45.3978 39.4122 45.3315 39.413 45.7047C39.413 45.9916 39.4114 46.2794 39.4137 46.5663C39.4147 46.6628 39.3743 46.7293 39.3039 46.7941C39.1372 46.9483 38.9521 47.0139 38.7205 46.9988C38.4248 46.9799 38.1267 46.994 37.8303 46.994H37.8295Z" fill="#AA2328"/>
<path d="M37.8295 42.2638C38.1767 42.2638 38.5245 42.2671 38.8715 42.2623C38.9854 42.2608 39.0731 42.3027 39.1681 42.3603C39.36 42.4766 39.4361 42.6275 39.417 42.8536C39.3972 43.0917 39.41 43.3336 39.414 43.5732C39.4155 43.6767 39.3728 43.7463 39.2969 43.8166C39.1254 43.9739 38.9332 44.0238 38.7016 44.0191C38.0579 44.0055 37.4136 44.0143 36.7693 44.0143C36.597 44.0143 36.5511 43.9683 36.5503 43.796C36.5503 43.3542 36.5503 42.9121 36.5503 42.4703C36.5503 42.3065 36.593 42.2646 36.759 42.2638C37.1157 42.2638 37.4729 42.2638 37.8295 42.2638Z" fill="#AA2328"/>
<path d="M35.5177 37.1724C35.5185 37.2214 35.4971 37.2633 35.4554 37.2814C35.3778 37.3156 35.2971 37.3424 35.2173 37.3686C35.1841 37.3796 35.1557 37.3638 35.1391 37.3314C35.1351 37.3226 35.1304 37.314 35.1288 37.3053C35.1185 37.2412 35.0457 37.1835 35.1058 37.1139C35.1509 37.0617 35.381 37.0009 35.4323 37.0262C35.4916 37.0554 35.5154 37.1084 35.5177 37.1724Z" fill="#AB2429"/>
<path d="M35.2887 36.604C35.2918 36.6537 35.2689 36.6941 35.2269 36.713C35.1558 36.7454 35.0815 36.7715 35.0064 36.7954C34.97 36.8072 34.9383 36.7906 34.9233 36.7519C34.8632 36.5977 34.8286 36.558 35.0142 36.5043C35.0506 36.494 35.0855 36.4774 35.1217 36.4704C35.2119 36.4522 35.2847 36.5131 35.287 36.604H35.2887Z" fill="#AB2429"/>
<path d="M37.103 52.8769C36.9259 52.8588 36.9314 52.8595 36.9465 52.6777C36.9543 52.5812 36.9924 52.5496 37.0832 52.5679C37.1141 52.5742 37.1457 52.5734 37.1766 52.579C37.2808 52.5971 37.3308 52.6588 37.3197 52.7528C37.3102 52.8359 37.2414 52.8841 37.1402 52.8801C37.1276 52.8801 37.1148 52.8777 37.103 52.8761V52.8769Z" fill="#AB2429"/>
<path d="M39.0985 53.1055C39.1023 53.3386 38.9569 53.4564 38.7853 53.4137C38.7537 53.4059 38.7403 53.3845 38.7371 53.3521C38.7079 53.114 38.6778 52.8761 38.6479 52.6383C38.6439 52.6074 38.6509 52.5828 38.681 52.567C38.832 52.4856 39.0131 52.5622 39.0438 52.7282C39.0707 52.8706 39.0865 53.0153 39.0993 53.1062L39.0985 53.1055Z" fill="#AA2328"/>
<path d="M34.0837 51.774C34.0781 51.7906 34.0709 51.8222 34.0583 51.8499C33.991 51.9923 33.9112 52.1282 33.8212 52.257C33.7263 52.3931 33.5175 52.3891 33.4218 52.2555C33.402 52.2279 33.4123 52.2033 33.4274 52.1773C33.5477 51.9741 33.6662 51.7702 33.7848 51.566C33.8124 51.5188 33.8433 51.5115 33.8931 51.5376C34.0314 51.6087 34.0852 51.668 34.0829 51.7748L34.0837 51.774Z" fill="#AA2328"/>
<path d="M31.1409 49.4709C31.1805 49.4719 31.2019 49.4837 31.1742 49.5209C31.1157 49.5983 31.0564 49.6749 30.9954 49.7502C30.9693 49.7826 30.9409 49.7761 30.9188 49.7437C30.8879 49.7002 30.8595 49.6552 30.8286 49.6118C30.8098 49.5849 30.8136 49.5643 30.846 49.5548C30.9449 49.5256 31.0444 49.4978 31.1418 49.4702L31.1409 49.4709Z" fill="#AB252A"/>
<path d="M38.6635 36.7668C38.4437 36.7384 38.4256 36.7961 38.5309 36.5653C38.5514 36.5194 38.5711 36.4736 38.5932 36.4277C38.5997 36.4143 38.606 36.3976 38.6256 36.3976C38.6462 36.3976 38.6509 36.4159 38.6542 36.4292C38.6763 36.5241 38.6984 36.6191 38.7182 36.7138C38.7293 36.766 38.6976 36.7723 38.6628 36.766L38.6635 36.7668Z" fill="#AB252A"/>
<path d="M35.4189 52.7282C35.4165 52.9497 35.4616 52.945 35.2095 52.8611C35.162 52.8453 35.1595 52.8232 35.1881 52.786C35.2426 52.7164 35.2941 52.6446 35.3478 52.575C35.3604 52.5584 35.3715 52.5308 35.3976 52.5393C35.4285 52.5496 35.4182 52.5813 35.4182 52.6049C35.4182 52.6461 35.4182 52.6873 35.4182 52.7282H35.4189Z" fill="#AC272C"/>
<path d="M45.7537 42.6916C45.756 42.7817 45.6676 42.8576 45.5623 42.8576C45.4747 42.8576 45.4058 42.7913 45.4034 42.7051C45.4011 42.6165 45.4905 42.5391 45.5947 42.5383C45.6801 42.5383 45.7512 42.6062 45.7537 42.6908V42.6916Z" fill="#AB2429"/>
</g>
</svg>