<?xml version="1.0" encoding="UTF-8"?>
<svg xmlns="http://www.w3.org/2000/svg" width="92" height="43" viewBox="0 0 92 43" fill="none">
  <g clip-path="url(#clip0_1234_45184)">
    <path d="M13.7781 29.1458C13.4985 29.1458 13.3706 29.1073 13.3706 28.9803C13.3706 28.9168 13.3966 28.8148 13.4465 28.7013L14.4252 26.6151C14.4892 26.4881 14.5391 26.4246 14.591 26.4246C14.643 26.4246 14.7049 26.4747 14.7568 26.5901L15.6337 28.5377C15.7355 28.7667 15.7855 28.9322 15.7855 28.9957C15.7855 29.1092 15.6456 29.1477 15.3281 29.1477H13.7761L13.7781 29.1458ZM11.565 31.2204C11.3732 31.6283 11.2334 31.9574 10.7261 32.2499C10.5603 32.3519 10.4344 32.402 10.4344 32.606C10.4344 32.7715 10.5243 32.8215 10.74 32.8215C10.9298 32.8215 11.2734 32.7715 11.7587 32.7715C12.4958 32.7715 13.043 32.86 13.3866 32.86C13.5903 32.86 13.6662 32.81 13.6662 32.6175C13.6662 32.3115 13.3606 32.3885 12.9292 32.248C12.5357 32.121 12.332 31.867 12.332 31.4975C12.332 31.307 12.3699 31.128 12.4338 30.976L12.7135 30.3274C12.9052 29.8829 13.1209 29.8829 13.6163 29.8829H15.4859C16.0192 29.8829 16.1849 29.9079 16.3767 30.3909L16.6943 31.205C16.7322 31.3185 16.7702 31.4475 16.7702 31.586C16.7702 31.8785 16.6304 32.0941 16.3507 32.2346C16.0711 32.375 15.8933 32.375 15.8933 32.6156C15.8933 32.7561 15.9832 32.8446 16.173 32.8446C16.3248 32.8446 16.7702 32.7311 17.5212 32.7311C18.3102 32.7311 18.9973 32.8196 19.5566 32.8196C19.8881 32.8196 20.0399 32.7811 20.0399 32.5521C20.0399 32.3365 19.8622 32.3096 19.5306 32.171C19.3788 32.1075 19.187 31.8785 18.9973 31.4705L15.5238 23.9132C15.4479 23.7477 15.396 23.6842 15.2701 23.6842C15.1563 23.6842 15.0924 23.7477 15.0285 23.8997L11.569 31.2165L11.565 31.2204Z" fill="#BEAE8E"></path>
    <path d="M20.9907 24.6041C20.6471 24.3251 20.3156 24.4136 20.3156 24.1326C20.3156 23.9286 20.3795 23.8266 20.5572 23.8266C20.6971 23.8266 21.1165 23.9036 21.7776 23.9036C22.299 23.9036 22.6545 23.8266 22.8582 23.8266C23.1638 23.8266 23.2397 23.9921 23.3296 24.0807L28.3171 29.5018C28.393 29.5904 28.4689 29.6289 28.5328 29.6289C28.6347 29.6289 28.6467 29.5134 28.6467 29.2343V26.1802C28.6467 25.2892 28.5967 24.7927 28.0874 24.5252C27.642 24.2827 27.0568 24.4617 27.0568 24.0537C27.0568 23.9017 27.1327 23.8247 27.3244 23.8247C27.5661 23.8247 28.0235 23.9267 28.7106 23.9267C29.4357 23.9267 29.907 23.8247 30.1487 23.8247C30.3784 23.8247 30.4663 23.8882 30.4663 24.0672C30.4663 24.3847 30.1228 24.3347 29.8811 24.5002C29.4476 24.8062 29.3598 25.3277 29.3478 26.2303L29.2199 32.4135C29.208 32.783 29.156 32.9601 29.0282 32.9601C28.8764 32.9601 28.7985 32.8446 28.6467 32.681L22.5406 26.1167C22.4388 26.0013 22.3489 25.9512 22.3109 25.9512C22.235 25.9512 22.2091 26.0667 22.2091 26.2957V30.1119C22.2091 31.18 22.2211 31.7785 22.8962 32.1345C23.3915 32.402 23.7491 32.2365 23.7491 32.5675C23.7491 32.7715 23.6852 32.8735 23.4814 32.8735C22.9861 32.8735 22.4887 32.785 22.0313 32.785C21.2803 32.785 20.7849 32.8735 20.5433 32.8735C20.3915 32.8735 20.3395 32.81 20.3395 32.631C20.3395 32.25 20.6451 32.377 20.9507 32.1345C21.4221 31.765 21.5739 31.0395 21.5739 29.8694V26.1167C21.5739 25.4932 21.5619 25.0487 20.9887 24.6022L20.9907 24.6041Z" fill="#BEAE8E"></path>
    <path d="M53.1128 25.9147C53.1128 25.2777 53.0489 24.8716 52.7433 24.6176C52.4896 24.4136 52.2339 24.4136 51.9923 24.3501C51.9024 24.3251 51.8265 24.2231 51.8265 24.1076C51.8265 23.9671 51.9403 23.8536 52.0801 23.8536C52.182 23.8536 52.7673 23.9421 53.8998 23.9421C54.8665 23.9421 55.4517 23.8267 55.6415 23.8267C55.8572 23.8267 55.9731 23.9287 55.9731 24.0807C55.9731 24.3867 55.5396 24.3232 55.3119 24.5387C55.0443 24.7812 55.0443 25.0853 55.0443 25.6068V30.951C55.0443 31.459 55.0702 31.79 55.4637 32.071C55.8073 32.3135 56.3166 32.2115 56.3166 32.5791C56.3166 32.7446 56.2028 32.8716 56.0629 32.8716C55.7953 32.8716 55.1861 32.7311 54.2313 32.7311C53.2766 32.7311 52.6674 32.8716 52.3618 32.8716C52.222 32.8716 52.0941 32.7446 52.0941 32.6041C52.0941 32.2866 52.6154 32.2866 52.8831 31.9421C53.1128 31.6496 53.1128 31.2166 53.1128 30.593V25.9108V25.9147Z" fill="#BEAE8E"></path>
    <path d="M57.3872 24.6041C57.0436 24.3251 56.7141 24.4136 56.7141 24.1326C56.7141 23.9286 56.778 23.8266 56.9558 23.8266C57.0956 23.8266 57.515 23.9036 58.1762 23.9036C58.6975 23.9036 59.053 23.8266 59.2568 23.8266C59.5624 23.8266 59.6383 23.9921 59.7281 24.0807L64.7156 29.5018C64.7915 29.5904 64.8674 29.6289 64.9314 29.6289C65.0332 29.6289 65.0452 29.5134 65.0452 29.2343V26.1802C65.0452 25.2892 64.9953 24.7927 64.4859 24.5252C64.0405 24.2827 63.4553 24.4617 63.4553 24.0537C63.4553 23.9017 63.5312 23.8247 63.7229 23.8247C63.9646 23.8247 64.422 23.9267 65.1091 23.9267C65.8342 23.9267 66.3056 23.8247 66.5473 23.8247C66.777 23.8247 66.8648 23.8882 66.8648 24.0672C66.8648 24.3847 66.5213 24.3347 66.2796 24.5002C65.8462 24.8062 65.7583 25.3277 65.7463 26.2303L65.6185 32.4135C65.6065 32.783 65.5545 32.9601 65.4267 32.9601C65.2749 32.9601 65.197 32.8446 65.0452 32.681L58.9392 26.1167C58.8373 26.0013 58.7494 25.9512 58.7095 25.9512C58.6336 25.9512 58.6076 26.0667 58.6076 26.2957V30.1119C58.6076 31.18 58.6196 31.7785 59.2947 32.1345C59.7901 32.402 60.1476 32.2365 60.1476 32.5675C60.1476 32.7715 60.0837 32.8735 59.88 32.8735C59.3846 32.8735 58.8872 32.785 58.4298 32.785C57.6788 32.785 57.1835 32.8735 56.9418 32.8735C56.79 32.8735 56.738 32.81 56.738 32.631C56.738 32.25 57.0436 32.377 57.3493 32.1345C57.8206 31.765 57.9724 31.0395 57.9724 29.8694V26.1167C57.9724 25.4932 57.9605 25.0487 57.3872 24.6022V24.6041Z" fill="#BEAE8E"></path>
    <path d="M68.3909 25.9147C68.3909 25.2777 68.3409 24.8717 68.0353 24.6176C67.7817 24.4136 67.526 24.4136 67.2843 24.3501C67.1944 24.3251 67.1065 24.2231 67.1065 24.1077C67.1065 23.9422 67.2344 23.8286 67.4501 23.8286C67.5779 23.8286 68.1372 23.9306 69.1419 23.9306C70.2365 23.9306 70.8217 23.8286 70.9355 23.8286C71.1513 23.8286 71.2671 23.9441 71.2671 24.0826C71.2671 24.3886 70.8357 24.3251 70.606 24.5407C70.3383 24.7831 70.3383 25.0872 70.3383 25.6087V27.7853C70.3383 27.9258 70.3883 28.0143 70.4522 28.0143C70.4781 28.0143 70.554 27.9758 70.6679 27.8738L72.9829 25.7742C73.4543 25.3547 73.7079 25.0487 73.7079 24.7562C73.7079 24.4637 73.6061 24.4502 73.2625 24.3867C73.0088 24.3367 72.907 24.3232 72.907 24.1077C72.907 23.9287 72.9829 23.8652 73.2126 23.8652C73.3903 23.8652 73.8737 23.9152 74.6747 23.9152C75.4756 23.9152 75.8711 23.8652 75.973 23.8652C76.2266 23.8652 76.3285 23.9037 76.3285 24.0942C76.3285 24.3867 76.1627 24.3232 75.7173 24.5272C75.0442 24.8332 74.5468 25.2777 73.9995 25.7608L72.7911 26.8288C72.6513 26.9443 72.5754 27.0194 72.5754 27.1079C72.5754 27.1714 72.6253 27.2599 72.7152 27.4004L75.5655 31.5091C75.7812 31.8151 75.9969 32.0441 76.2906 32.1711C76.5442 32.2866 76.6721 32.2096 76.6721 32.5156C76.6721 32.7446 76.5962 32.8081 76.2786 32.8081C76.0868 32.8081 75.7952 32.7696 75.3877 32.7696C74.8025 32.7696 74.4709 32.8197 74.383 32.8197C74.1154 32.8197 73.8617 32.5522 73.4543 31.9421L71.2791 28.6725C71.2032 28.5589 71.1393 28.4935 71.0634 28.4935C70.9995 28.4935 70.9495 28.5185 70.9116 28.557L70.5181 28.9265C70.3663 29.067 70.3403 29.117 70.3403 29.346V30.9491C70.3403 31.4571 70.3663 31.7766 70.7857 32.0691C71.1553 32.3116 71.6886 32.2096 71.6886 32.5772C71.6886 32.7427 71.5607 32.8832 71.4209 32.8832C71.1533 32.8832 70.5041 32.7311 69.5134 32.7311C68.5846 32.7311 67.9614 32.8716 67.6558 32.8716C67.516 32.8716 67.3882 32.7446 67.3882 32.6041C67.3882 32.2866 67.8975 32.2866 68.1652 31.9421C68.3949 31.6496 68.3949 31.2166 68.3949 30.5931V25.9109L68.3909 25.9147Z" fill="#BEAE8E"></path>
    <path d="M78.248 25.9147C78.248 25.2777 78.1841 24.8717 77.8785 24.6176C77.6248 24.4136 77.3691 24.4136 77.1275 24.3501C77.0376 24.3251 76.9617 24.2231 76.9617 24.1077C76.9617 23.9556 77.0755 23.8286 77.2793 23.8286C77.4071 23.8286 78.0043 23.9306 79.0989 23.9306C80.0656 23.9306 80.6249 23.8286 80.7907 23.8286C81.0064 23.8286 81.1222 23.9306 81.1222 24.0826C81.1222 24.3886 80.6908 24.3251 80.4611 24.5407C80.2074 24.7697 80.1935 25.0622 80.1935 25.6087V30.8894C80.1935 31.8055 80.2434 32.0595 80.9445 32.0595C82.1269 32.0595 83.0178 31.7035 83.6549 31.0164C83.9605 30.6739 83.9605 30.3679 84.1882 30.3679C84.34 30.3679 84.4419 30.4834 84.4419 30.6854C84.4419 31.0299 84.3141 31.461 84.0724 31.894C83.6909 32.5676 83.2455 32.8485 82.5464 32.8485C82.0251 32.8485 80.9944 32.735 79.4804 32.735C78.4637 32.735 77.7886 32.8755 77.495 32.8755C77.3552 32.8755 77.2273 32.7485 77.2273 32.608C77.2273 32.2904 77.7486 32.2904 78.0163 31.946C78.246 31.6534 78.246 31.2204 78.246 30.5969V25.9147H78.248Z" fill="#BEAE8E"></path>
    <path d="M85.8041 25.9146C85.8041 25.2776 85.7402 24.8716 85.4346 24.6176C85.181 24.4136 84.9253 24.4136 84.6836 24.3501C84.5937 24.325 84.5178 24.223 84.5178 24.1076C84.5178 23.9555 84.6317 23.8285 84.8494 23.8285C84.9513 23.8285 85.5105 23.9171 86.5532 23.9171C89.3136 23.9171 90.7757 23.79 91.0054 23.79C91.285 23.79 91.273 23.8535 91.297 24.1595L91.3869 25.4181C91.3988 25.5586 91.4128 25.6606 91.4128 25.7357C91.4128 25.9397 91.3629 26.0147 91.1452 26.0147C90.8775 26.0147 90.9534 25.7357 90.8396 25.3777C90.5979 24.6272 89.9627 24.5117 88.7283 24.5117C87.8635 24.5117 87.7496 24.5752 87.7496 25.4143V27.1059C87.7496 27.6659 87.7995 27.6794 88.5765 27.6794C89.1997 27.6794 89.5692 27.5139 89.8109 27.1193C90.0027 26.8018 89.9507 26.4823 90.2304 26.4823C90.4081 26.4823 90.4721 26.5709 90.4721 26.7749C90.4721 27.0674 90.4221 27.4619 90.4221 27.9584C90.4221 28.7089 90.536 29.167 90.536 29.3325C90.536 29.5114 90.498 29.6 90.3322 29.6C89.9887 29.6 90.1405 29.2555 89.9887 28.938C89.747 28.4299 89.3136 28.301 88.4487 28.301C87.7756 28.301 87.7496 28.4799 87.7496 29.1785V30.8836C87.7496 31.7996 87.7995 32.0536 88.5006 32.0536C89.6831 32.0536 90.5739 31.6976 91.2111 31.0106C91.5167 30.668 91.5287 30.362 91.7584 30.362C91.9102 30.362 92.0001 30.4775 92.0001 30.6796C92.0001 31.0241 91.8862 31.4551 91.6445 31.8881C91.263 32.5617 90.8056 32.8677 90.1045 32.8677C89.5832 32.8677 88.5526 32.7272 87.0385 32.7272C86.0219 32.7272 85.3467 32.8677 85.0551 32.8677C84.9153 32.8677 84.7875 32.7407 84.7875 32.6002C84.7875 32.2827 85.3088 32.2827 85.5764 31.9382C85.7922 31.6591 85.8061 31.2377 85.8061 30.5891V25.9069L85.8041 25.9146Z" fill="#BEAE8E"></path>
    <path d="M14.9066 18.1726C14.7209 18.1726 14.1456 18.3169 13.095 18.3169C11.7567 18.3169 10.9957 18.1726 10.768 18.1726C10.4185 18.1726 10.2527 18.3381 10.2527 18.5844C10.2527 19.0367 10.6642 19.0367 11.2214 19.2022C11.9824 19.4081 12.334 19.7987 12.334 20.4781C12.334 20.7879 12.2301 21.3017 12.0044 21.8367L9.20407 28.3857C9.14215 28.5512 9.01831 28.632 8.89447 28.632C8.79061 28.632 8.68874 28.5492 8.60685 28.3645L5.55882 21.1767C5.31115 20.5993 5.20928 20.2087 5.20928 20.0027C5.20928 19.4254 5.55882 19.3234 6.01223 19.1175C6.29986 18.9943 6.44367 18.9116 6.44367 18.6229C6.44367 18.315 6.29986 18.1707 5.95031 18.1707C5.18931 18.1707 4.09673 18.315 2.69656 18.315C1.62595 18.315 0.94684 18.1707 0.637244 18.1707C0.245754 18.1707 -0.00192261 18.3977 -0.00192261 18.6652C-0.00192261 19.0771 0.491434 19.0771 0.944843 19.3446C1.56204 19.716 1.7478 20.1682 2.03542 20.8283L7.08084 32.402C7.2666 32.8542 7.39043 33.0602 7.65809 33.0602C8.13147 33.0602 8.37915 32.402 8.93442 31.1857L13.3207 21.4653C13.7322 20.5377 14.0218 19.818 14.4952 19.4062C14.8647 19.0963 15.3181 19.0347 15.3181 18.5825C15.3181 18.315 15.2142 18.1707 14.9066 18.1707V18.1726ZM7.59217 32.1056C7.48431 32.1056 7.44037 31.9805 7.35448 31.7708L2.6646 20.8938C2.18922 19.7872 1.8217 19.1406 1.32435 18.952L1.38826 18.8692C2.18722 19.1617 2.68457 19.7044 3.07407 20.582L7.67806 31.2088C7.76395 31.3974 7.80789 31.5437 7.80789 31.6688C7.80789 31.8978 7.67806 32.1075 7.59217 32.1075V32.1056ZM12.8993 20.9765L12.7914 20.913C12.8553 20.6628 12.9212 20.4126 12.9212 20.1605C12.9212 19.5967 12.5976 19.2426 11.9705 19.0328L12.0344 18.9693H12.0983C12.8553 18.9693 13.2867 19.3446 13.2867 19.7833C13.2867 20.097 13.1349 20.4723 12.8973 20.9727L12.8993 20.9765Z" fill="#BEAE8E"></path>
    <path d="M53.4364 18.1669C53.2506 18.1669 52.6953 18.29 51.7685 18.29C50.4103 18.29 49.6273 18.1669 49.4615 18.1669C49.112 18.1669 48.9462 18.3324 48.9462 18.5787C48.9462 19.0309 49.3577 19.0309 49.9129 19.1965C50.674 19.4024 51.0255 19.793 51.0255 20.4724C51.0255 20.9669 50.9017 21.4404 50.6959 21.9561L48.4109 27.8045C48.369 27.9277 48.2871 28.0105 48.2052 28.0105C48.1013 28.0105 47.9994 27.9277 47.9575 27.8045L45.5686 21.1729C45.3429 20.5147 45.281 20.1029 45.281 19.9778C45.281 19.4216 45.6305 19.2984 46.064 19.1137C46.3516 18.9905 46.4954 18.9078 46.4954 18.6191C46.4954 18.3112 46.3516 18.1669 46.002 18.1669C45.2191 18.1669 44.1485 18.3324 42.8102 18.3324C41.7596 18.3324 41.1004 18.1669 40.7928 18.1669C40.4014 18.1669 40.1537 18.394 40.1537 18.6615C40.1537 19.0733 40.647 19.0733 41.1004 19.3408C41.8215 19.7738 41.9853 20.226 42.191 20.8245L42.8701 22.801C42.9321 23.0069 42.972 23.1512 42.972 23.234C42.972 23.336 42.9301 23.5226 42.8082 23.8113L41.1204 27.9296C41.0585 28.0951 40.9566 28.1971 40.8727 28.1971C40.7888 28.1971 40.667 28.1144 40.6051 27.9296L37.9286 21.1748C37.7029 20.6398 37.579 20.2472 37.579 20.0009C37.579 19.4235 37.9286 19.3215 38.382 19.1156C38.6696 18.9925 38.8134 18.9097 38.8134 18.621C38.8134 18.3131 38.6696 18.1688 38.3201 18.1688C37.5591 18.1688 36.4665 18.3343 35.0663 18.3343C33.9957 18.3343 33.3166 18.1688 33.007 18.1688C32.6155 18.1688 32.3898 18.3959 32.3898 18.6634C32.3898 19.0752 32.8832 19.0752 33.3166 19.3427C33.9757 19.7545 34.1815 20.1875 34.4291 20.8265L38.9393 32.4001C39.105 32.8331 39.2069 33.0583 39.4746 33.0583C40.1337 33.0583 40.3195 32.173 41.1224 30.2582L43.3875 24.9044C43.4294 24.8005 43.4893 24.7389 43.5512 24.7389C43.5932 24.7389 43.6132 24.8005 43.6531 24.8832L46.3716 32.4001C46.5154 32.8331 46.5973 33.0583 46.9069 33.0583C47.3802 33.0583 47.6679 32.2558 48.4928 30.1966L52.0142 21.4654C52.4257 20.457 52.8371 19.7565 53.1887 19.3446C53.3944 19.0983 53.8059 18.9944 53.8059 18.5826C53.8059 18.3151 53.724 18.1707 53.4344 18.1707L53.4364 18.1669ZM39.4246 31.6496C39.3248 31.6496 39.2848 31.5322 39.2049 31.3378L35.2521 21.0478C34.8306 19.9566 34.4491 19.3523 34.0676 19.1965L34.1275 19.1175C34.8306 19.3908 35.312 19.9354 35.6316 20.7745L39.5225 30.8317C39.5624 30.9491 39.6224 31.0665 39.6224 31.2416C39.6224 31.436 39.5025 31.6515 39.4226 31.6515L39.4246 31.6496ZM46.9188 31.6496C46.839 31.6496 46.7591 31.5514 46.6971 31.3763L42.9261 20.9689C42.5246 19.8777 42.1631 19.2734 41.7816 19.1175L41.8415 19.0386C42.5446 19.3312 43.006 19.8758 43.3056 20.7148L47.0367 30.8298C47.0766 30.9279 47.1366 31.0241 47.1366 31.2397C47.1366 31.4341 46.9967 31.6496 46.9169 31.6496H46.9188ZM51.4789 20.9881L51.379 20.9265C51.439 20.6821 51.4989 20.4589 51.4989 20.2145C51.4989 19.666 51.2172 19.3196 50.636 19.1156L50.6959 19.0348H50.7558C51.4589 19.0348 51.8384 19.4004 51.8384 19.8277C51.8384 20.1337 51.6986 20.4993 51.4769 20.9881H51.4789Z" fill="#BEAE8E"></path>
    <path d="M41.5239 6.68555V2.86936C41.5239 1.54149 41.8355 0.973774 43.9068 0.973774C47.8896 0.973774 50.2725 2.51526 50.2725 5.00358C50.2725 7.0666 48.4768 7.82483 44.7277 7.82483C41.7216 7.82483 41.5259 7.65933 41.5259 6.68748L41.5239 6.68555ZM49.9589 8.25013C53.3944 7.5631 55.0363 6.32953 55.0363 4.43394C55.0363 1.63579 51.8344 0 45.8982 0C43.2816 0 40.8608 0.190521 38.7116 0.190521C35.8613 0.190521 34.1435 0 33.5962 0C32.971 0 32.6595 0.165503 32.6595 0.498434C32.6595 1.25667 34.4951 0.760159 35.7454 1.51839C36.6822 2.06301 36.7222 2.79816 36.7222 3.96053V13.2537C36.7222 14.3449 36.2927 15.055 35.1602 15.4822C34.2614 15.8383 33.3645 15.8614 33.3645 16.3598C33.3645 16.6677 33.6761 16.8332 34.3013 16.8332C35.2001 16.8332 37.0357 16.6196 39.6523 16.6196C42.0732 16.6196 43.6351 16.8332 44.3382 16.8332C45.0014 16.8332 45.275 16.7139 45.275 16.3117C45.275 15.6958 44.1025 15.8383 43.1658 15.5534C41.9553 15.1743 41.448 14.4161 41.448 13.1825V9.69732C41.448 9.03339 41.8375 8.86788 43.0879 8.86788C44.3382 8.86788 45.1971 8.86788 45.9381 9.27009C46.5633 9.6011 47.4222 10.7154 48.8663 12.5186C51.1713 15.4341 52.927 16.762 55.4657 16.762C57.575 16.762 59.6443 16.0981 59.6443 15.5284C59.6443 15.2917 59.4885 15.1974 59.097 15.1974C58.8233 15.1974 58.4718 15.2455 58.1602 15.2455C56.8719 15.2455 56.2467 14.7952 55.27 13.6809L51.3251 9.24893C50.9336 8.7986 50.5441 8.44258 49.9589 8.25398V8.25013ZM35.7454 0.852533C37.621 1.18354 38.2841 1.9437 38.2841 3.46017V12.4685C38.2841 14.4603 37.8946 15.4784 35.9791 15.7401C37.4232 14.8626 37.4632 13.8445 37.4632 12.5397V3.29467C37.4632 2.1092 36.9559 1.32595 35.7454 0.852533ZM47.4602 0.971849C50.2325 1.44526 51.8344 2.75004 51.8344 4.52824C51.8344 5.78491 51.0535 6.77985 49.6473 7.34949L49.5694 7.27829C50.5062 6.63744 50.8977 5.83302 50.8977 4.71876C50.8977 3.22538 49.7651 1.96872 47.4602 1.01996V0.971849ZM46.4455 8.72355C46.5633 8.72355 46.6792 8.70046 46.7571 8.70046C47.4602 8.70046 47.6938 8.91407 48.0074 9.29319L51.405 13.3461C52.8491 15.0531 54.2173 16.073 55.1941 16.3559L55.1162 16.4502C53.4364 16.2135 51.9523 15.2648 50.5082 13.5097L47.5001 9.90709C47.1885 9.52797 46.8749 9.17195 46.3676 8.88713L46.4455 8.72163V8.72355Z" fill="#BEAE8E"></path>
    <path d="M67.1045 15.9095C66.0998 15.6997 65.6424 15.1262 65.6424 14.1524V7.20709C65.6424 6.3892 65.7563 5.79646 66.3016 5.46738C66.9328 5.08442 68.0213 5.2403 68.0213 4.78805C68.0213 4.58021 67.8216 4.47437 67.4201 4.47437C67.2184 4.47437 65.6704 4.59561 62.4326 4.59561C60.8567 4.59561 59.9379 4.47437 59.6522 4.47437C59.1649 4.47437 58.9352 4.63025 58.9352 4.84001C58.9352 5.4135 60.3973 5.04785 61.4299 5.53666C62.2029 5.90231 62.2029 6.40652 62.2029 7.38221V14.2044C62.2029 15.0569 61.8294 15.6131 61.2002 15.8229C60.3973 16.0846 59.7381 16.1192 59.7381 16.4849C59.7381 16.6927 59.9678 16.8332 60.4272 16.8332C61.2002 16.8332 62.4626 16.6773 64.0685 16.6773C66.1318 16.6773 67.538 16.8332 68.255 16.8332C68.8003 16.8332 69.058 16.712 69.058 16.4502C69.058 15.9807 68.0253 16.1019 67.1085 15.9114L67.1045 15.9095Z" fill="#BEAE8E"></path>
    <path d="M78.6854 4.47437C77.481 4.47437 75.7333 4.61293 73.4103 4.61293C71.5467 4.61293 70.3423 4.47437 69.8549 4.47437C69.3955 4.47437 69.1658 4.61293 69.1658 4.84001C69.1658 5.39618 70.5141 5.03053 71.4588 5.58862C72.1479 5.98891 72.2039 6.52776 72.2039 7.38029V14.2025C72.2039 15.0031 71.8883 15.5246 71.0574 15.8383C70.3982 16.1 69.7391 16.1173 69.7391 16.483C69.7391 16.71 69.9688 16.8313 70.4282 16.8313C71.0873 16.8313 72.4356 16.6754 74.3551 16.6754C76.2746 16.6754 77.3372 16.8313 77.8245 16.8313C78.3119 16.8313 78.5696 16.7274 78.5696 16.4483C78.5696 15.9961 77.6807 16.1 76.9637 15.8921C76.0469 15.6131 75.6733 15.0569 75.6733 14.1524V7.27637C75.6733 5.77915 75.7313 5.20566 77.5948 5.20566C80.2034 5.20566 81.8952 6.42384 81.8952 8.1289C81.8952 9.71273 80.6908 10.5133 78.254 10.5133C77.5649 10.5133 77.1354 10.4267 76.9916 10.4267C76.7619 10.4267 76.5622 10.5479 76.5622 10.6711C76.5622 11.0714 77.6807 11.3504 79.5443 11.3504C82.9558 11.3504 85.5065 9.88785 85.5065 7.83446C85.5065 5.78107 83.0977 4.47629 78.6834 4.47629L78.6854 4.47437Z" fill="#BEAE8E"></path>
    <path d="M12.8813 6.99159C14.9845 6.99159 16.3547 8.48882 16.3547 11.1484C16.3547 14.2295 14.633 16.3079 12.0524 16.3079C9.88518 16.3079 8.53094 14.8106 8.53094 12.1818C8.53094 9.11619 10.3006 6.99352 12.8813 6.99352V6.99159ZM12.0204 16.9603C13.838 16.9603 15.5578 16.2328 16.7842 14.955C17.8208 13.8792 18.3941 12.484 18.3941 11.0022C18.3941 8.22709 16.2109 6.33728 12.9911 6.33728C11.1435 6.33728 9.53364 6.94733 8.28926 8.1251C7.12678 9.24321 6.48761 10.6673 6.48761 12.1799C6.48761 15.0435 8.57489 16.9603 12.0164 16.9603H12.0204Z" fill="#BEAE8E"></path>
    <path d="M20.769 15.0127C20.769 15.3764 20.9128 15.5785 21.1205 15.5785C21.566 15.5785 21.7417 14.953 22.0453 14.953C22.1412 14.953 22.2051 15.0396 22.2051 15.1705C22.2051 15.5631 21.0906 16.7697 20.0539 16.7697C19.4647 16.7697 19.0972 16.3483 19.0972 15.694C19.0972 15.1994 19.1611 14.6913 19.225 14.1833L20.022 7.64397C20.022 7.58623 20.0379 7.5131 20.0379 7.4265C20.0379 7.02044 19.8941 6.82992 19.5446 6.82992C19.4647 6.82992 19.3369 6.84532 19.209 6.84532C19.0333 6.84532 18.9054 6.75872 18.9054 6.64133C18.9054 6.35073 19.2889 6.33534 19.9581 6.24874C20.8349 6.13327 21.3123 5.94275 21.4721 5.94275C21.6958 5.94275 21.7917 6.05822 21.7917 6.2776C21.7917 6.35073 21.7757 6.51046 21.7437 6.75679L20.8349 14.2121C20.771 14.6913 20.771 14.953 20.771 15.0108L20.769 15.0127Z" fill="#BEAE8E"></path>
    <path d="M27.3185 13.6464C27.1267 15.0551 26.2498 15.8556 25.4389 15.8556C24.7218 15.8556 24.3543 15.3476 24.3543 14.3295C24.3543 12.3531 25.4529 10.8424 26.7931 10.8424C27.3185 10.8424 27.5741 11.0888 27.5741 11.5699C27.5741 11.7007 27.5741 11.8759 27.5422 12.0645L27.3185 13.6483V13.6464ZM28.0675 7.64592L27.702 10.5672C27.4143 10.4364 27.0967 10.3632 26.7931 10.3632C25.7086 10.3632 24.8657 10.7558 24.0367 11.6276C23.1918 12.4994 22.7304 13.5886 22.7304 14.6201C22.7304 15.9576 23.5434 16.8005 24.7059 16.8005C25.6147 16.8005 26.4756 16.2925 27.2086 15.261L27.3045 15.2456V15.3611C27.3045 16.3194 27.67 16.814 28.2452 16.814C29.0901 16.814 30.1887 15.6074 30.1887 15.2013C30.1887 15.0859 30.1248 15.0127 30.0449 15.0127C29.7413 15.0127 29.5675 15.6228 29.1201 15.6228C28.9124 15.6228 28.7686 15.4188 28.7686 15.057C28.7686 14.9839 28.7686 14.7087 28.8325 14.2429L29.7892 6.75875C29.8212 6.45276 29.8372 6.30842 29.8372 6.27956C29.8372 6.06209 29.7413 5.9447 29.5176 5.9447C29.3578 5.9447 28.8804 6.1333 28.0036 6.25069C27.3344 6.33729 26.935 6.35269 26.935 6.64328C26.935 6.75875 27.0788 6.84727 27.2545 6.84727C27.3824 6.84727 27.5102 6.83188 27.5901 6.83188C27.9416 6.83188 28.0835 7.02047 28.0835 7.42846C28.0835 7.51506 28.0675 7.58819 28.0675 7.64592Z" fill="#BEAE8E"></path>
    <path d="M47.7398 35.8372C47.7677 35.6428 47.7757 35.4292 47.9875 35.333C48.2531 35.2098 48.5747 35.2002 48.8703 35.2002C50.3044 35.2002 51.4609 35.9353 51.4609 37.4133C51.4609 38.1562 51.2951 40.989 47.8596 40.989C47.5021 40.989 47.1426 41.0428 47.1426 40.6079C47.1426 40.5098 47.1525 40.3693 47.1785 40.1557L47.7398 35.8353V35.8372ZM46.4994 40.3866C46.3975 41.1487 45.8463 40.9081 45.8463 41.1294C45.8463 41.1833 45.9102 41.2353 45.9841 41.2353C46.2318 41.2353 46.5453 41.2007 46.8669 41.2007C47.2904 41.2007 47.7038 41.2353 48.2172 41.2353C51.5348 41.2353 52.186 38.4371 52.186 37.3748C52.186 36.632 51.8644 34.9673 48.9802 34.9673C48.5208 34.9673 47.6479 35.002 47.4282 35.002C47.2265 35.002 46.9129 34.9673 46.4914 34.9673C46.3356 34.9673 46.3077 35.0212 46.3077 35.0828C46.3077 35.2945 47.0986 35.1001 47.0986 35.6678C47.0986 35.7121 47.0886 35.8276 47.0707 35.9777L46.5014 40.3866H46.4994Z" fill="#BEAE8E"></path>
    <path d="M55.21 40.6445C55.4298 40.6445 55.6515 40.1037 55.7793 40.1037C55.8252 40.1037 55.8712 40.1383 55.8712 40.1922C55.8712 40.3693 55.3379 41.2372 54.8325 41.2372C54.5389 41.2372 54.455 40.9004 54.455 40.6791C54.455 39.8381 54.9144 38.1023 54.9144 37.8636C54.9144 37.5807 54.2153 37.8463 54.2153 37.5981C54.2153 37.4383 54.6008 37.5192 55.1901 37.421C55.3379 37.3941 55.4377 37.3325 55.5116 37.3325C55.6395 37.3325 55.6395 37.3864 55.6395 37.4306C55.6395 37.4845 55.0602 39.8651 55.0602 40.4135C55.0602 40.5906 55.0962 40.6445 55.208 40.6445H55.21ZM55.5037 36.3337C55.3658 36.3337 55.1721 35.9257 55.1721 35.8199C55.1721 35.6871 55.4118 35.3599 55.5496 35.3599C55.6874 35.3599 55.8812 35.7679 55.8812 35.8738C55.8812 36.0065 55.6415 36.3337 55.5037 36.3337Z" fill="#BEAE8E"></path>
    <path d="M59.7661 40.4578C59.7661 39.5898 58.3699 39.2357 58.3699 38.3505C58.3699 37.4652 59.1229 37.3325 59.5823 37.3325C60.2255 37.3325 60.4192 37.7039 60.4192 37.8463C60.4192 38.058 60.2255 38.0945 60.1336 38.0945C59.6742 38.0945 59.84 37.5461 59.3426 37.5461C59.067 37.5461 58.8653 37.7327 58.8653 38.0599C58.8653 38.7065 60.2894 39.1491 60.2894 40.1941C60.2894 40.9908 59.5444 41.3007 58.9212 41.3007C58.6176 41.3007 57.8746 41.2025 57.8746 40.7079C57.8746 40.681 57.8646 40.4597 58.1502 40.4597C58.5996 40.4597 58.3979 41.0697 59.0131 41.0697C59.4545 41.0697 59.7661 40.8138 59.7661 40.4597V40.4578Z" fill="#BEAE8E"></path>
    <path d="M64.7456 37.5288C64.8734 37.5288 65.0033 37.5115 65.0033 37.6962C65.0033 37.881 64.8754 37.856 64.7456 37.856H64.0385C63.9566 37.856 63.6251 40.0864 63.6251 40.2731C63.6251 40.4597 63.635 40.7426 63.9826 40.7426C64.4979 40.7426 64.6996 40.2384 64.8654 40.2384C64.9573 40.2384 64.9573 40.2923 64.9573 40.3173C64.9573 40.4328 64.2962 41.3007 63.5971 41.3007C63.1197 41.3007 63.0278 40.8677 63.0278 40.4944C63.0278 40.0171 63.3594 38.1215 63.3594 37.9445C63.3594 37.7135 62.882 37.9541 62.882 37.7328C62.882 37.6981 62.928 37.6269 63.2675 37.4576C63.8008 37.192 63.9566 36.6512 64.1404 36.6512C64.1863 36.6512 64.2422 36.6609 64.2422 36.7494C64.2422 36.7937 64.2063 36.8918 64.1963 36.9611L64.0765 37.5269H64.7476L64.7456 37.5288Z" fill="#BEAE8E"></path>
    <path d="M67.8236 40.6445C68.0433 40.6445 68.265 40.1037 68.3929 40.1037C68.4388 40.1037 68.4847 40.1383 68.4847 40.1922C68.4847 40.3693 67.9514 41.2372 67.4461 41.2372C67.1525 41.2372 67.0686 40.9004 67.0686 40.6791C67.0686 39.8381 67.528 38.1023 67.528 37.8636C67.528 37.5807 66.8289 37.8463 66.8289 37.5981C66.8289 37.4383 67.2144 37.5192 67.8036 37.421C67.9514 37.3941 68.0513 37.3325 68.1252 37.3325C68.253 37.3325 68.253 37.3864 68.253 37.4306C68.253 37.4845 67.6738 39.8651 67.6738 40.4135C67.6738 40.5906 67.7097 40.6445 67.8216 40.6445H67.8236ZM68.1172 36.3337C67.9794 36.3337 67.7856 35.9257 67.7856 35.8199C67.7856 35.6871 68.0253 35.3599 68.1632 35.3599C68.301 35.3599 68.4947 35.7679 68.4947 35.8738C68.4947 36.0065 68.255 36.3337 68.1172 36.3337Z" fill="#BEAE8E"></path>
    <path d="M71.4528 35.6505C71.4808 35.4831 71.5168 35.2348 71.5168 35.1367C71.5168 34.8615 70.8636 35.0828 70.8636 34.898C70.8636 34.7133 71.2132 34.7999 71.8563 34.6498C71.9662 34.6228 72.0301 34.6055 72.096 34.6055C72.1619 34.6055 72.2059 34.6402 72.2059 34.6844C72.2059 34.7287 72.0501 35.4985 72.0041 35.8256L71.4169 40.0306C71.3989 40.1537 71.371 40.3577 71.371 40.4116C71.371 40.554 71.4169 40.6945 71.5367 40.6945C71.8483 40.6945 72.1699 40.0479 72.2997 40.0479C72.3637 40.0479 72.4016 40.0748 72.4016 40.146C72.4016 40.3404 71.8403 41.2353 71.1432 41.2353C70.8676 41.2353 70.7757 40.9524 70.7757 40.6425C70.7757 40.3327 70.8317 39.9882 70.8496 39.8728L71.4568 35.6505H71.4528Z" fill="#BEAE8E"></path>
    <path d="M75.146 35.6505C75.174 35.4831 75.21 35.2348 75.21 35.1367C75.21 34.8615 74.5568 35.0828 74.5568 34.898C74.5568 34.7133 74.9063 34.7999 75.5495 34.6498C75.6594 34.6228 75.7233 34.6055 75.7892 34.6055C75.8551 34.6055 75.8991 34.6402 75.8991 34.6844C75.8991 34.7287 75.7433 35.4985 75.6973 35.8256L75.1101 40.0306C75.0921 40.1537 75.0641 40.3577 75.0641 40.4116C75.0641 40.554 75.1101 40.6945 75.2299 40.6945C75.5415 40.6945 75.8631 40.0479 75.9929 40.0479C76.0568 40.0479 76.0948 40.0748 76.0948 40.146C76.0948 40.3404 75.5335 41.2353 74.8364 41.2353C74.5608 41.2353 74.4689 40.9524 74.4689 40.6425C74.4689 40.3327 74.5249 39.9882 74.5428 39.8728L75.15 35.6505H75.146Z" fill="#BEAE8E"></path>
    <path d="M79.9158 37.625C80.2194 37.625 80.3852 37.7847 80.3852 38.0773C80.3852 38.8393 79.3106 39.1838 78.8132 39.1838C78.6654 39.1838 78.6015 39.1569 78.6015 39.1126C78.6015 38.8028 79.1348 37.625 79.9158 37.625ZM77.9584 39.9805C77.9584 40.733 78.4357 41.2988 79.2547 41.2988C80.2294 41.2988 80.9365 40.6348 80.9365 40.5117C80.9365 40.4501 80.9005 40.4328 80.8346 40.4328C80.6329 40.4328 80.4491 40.8311 79.7141 40.8311C78.979 40.8311 78.5476 40.5386 78.5476 39.6091C78.5476 39.3609 78.5656 39.3705 78.8053 39.3705C79.5223 39.3705 80.9465 39.026 80.9465 38.0696C80.9465 37.4768 80.4871 37.3344 80.1375 37.3344C79.1168 37.3344 77.9604 38.6353 77.9604 39.9805H77.9584Z" fill="#BEAE8E"></path>
    <path d="M86.0438 37.5903C86.0438 37.6615 85.896 38.2812 85.7402 38.2812C85.6304 38.2812 85.6024 37.8732 85.2628 37.8732C84.8034 37.8732 84.6656 38.8027 84.6097 39.1222L84.3241 40.937C84.3061 41.1044 84.2961 41.2025 84.2042 41.2025H83.8647C83.7548 41.2025 83.6809 41.2122 83.6809 41.0794C84.0125 39.23 84.0484 39.0337 84.0484 38.8047C84.0484 38.5487 84.0384 38.0176 83.6709 38.0176C83.3393 38.0176 83.3134 38.7084 83.0917 38.7084C83.0457 38.7084 83.0357 38.6469 83.0357 38.541C83.0357 38.2408 83.3573 37.3363 83.8167 37.3363C84.0644 37.3363 84.386 37.6461 84.4419 38.3197C84.5897 38.1523 85.0951 37.3363 85.6264 37.3363C85.7362 37.3363 86.0398 37.4421 86.0398 37.5923L86.0438 37.5903Z" fill="#BEAE8E"></path>
    <path d="M91.281 37.9618V37.9522C91.281 39.2358 90.1505 42.9981 88.5605 42.9981C88.1571 42.9981 87.9274 42.7768 87.9274 42.5651C87.9274 42.3784 88.0752 42.2995 88.185 42.2995C88.3868 42.2995 88.7263 42.5478 88.8741 42.5478C89.5452 42.5478 90.1325 41.2545 90.1325 41.0602C90.1325 40.1749 89.0119 38.0157 88.5525 38.0157C88.1211 38.0157 88.231 38.7335 88.0192 38.7335C87.9733 38.7335 87.9274 38.7065 87.9274 38.5911C87.9274 37.6885 88.3228 37.3344 88.7263 37.3344C89.0838 37.3344 89.4434 37.9368 89.6172 38.2197C90.3522 39.4147 90.4261 40.0248 90.5719 40.0248C90.6458 40.0248 90.8935 39.1126 90.8935 38.6623C90.8935 37.9637 90.6538 37.9445 90.6538 37.6712C90.6538 37.4672 90.7457 37.3344 90.9394 37.3344C91.2151 37.3344 91.279 37.573 91.279 37.9637L91.281 37.9618Z" fill="#BEAE8E"></path>
  </g>
  <defs>
    <clipPath id="clip0_1234_45184">
      <rect width="92" height="43" fill="white"></rect>
    </clipPath>
  </defs>
</svg>
